<svg width="57" height="57" viewBox="0 0 57 57" fill="none" xmlns="http://www.w3.org/2000/svg">
<path fill-rule="evenodd" clip-rule="evenodd" d="M5.84779 9.73096C5.84779 8.33896 7.07193 7.43506 8.48793 7.43506H15.3759C18.1759 7.43506 18.008 9.835 18.392 11.771L19.5519 16.1147C20.0319 17.5387 20.392 18.4511 19.08 19.7471L16.3278 22.499C15.2478 23.579 15.2639 24.6831 16.0319 25.9551C16.9919 27.5631 17.4239 28.2589 18.5919 29.8188C21.3759 33.5308 25.6398 37.7387 29.6478 40.1147C31.0558 40.9467 32.704 42.4749 34.464 40.7549L37.216 37.9951C38.936 36.2671 40.0958 37.2747 42.3038 37.9067C43.6479 38.2827 45.4238 38.7227 46.8158 38.9067C47.3358 38.9787 47.8398 39.0351 48.2958 39.2671C49.0638 39.6671 49.5839 40.5151 49.5839 41.6431V48.6431C49.5839 49.9711 48.6559 51.2827 47.4079 51.2827C45.9119 51.2827 44.2079 50.931 42.8639 50.667C40.5439 50.203 39.0159 49.7309 36.8319 49.0029C34.9919 48.3949 32.96 47.5072 31.256 46.6592C29.544 45.7952 26.4159 43.9552 24.8239 42.7632L23.3839 41.6748L20.5119 39.2588C19.4719 38.1948 17.5679 36.4107 16.6879 35.2827L14.424 32.3789C11.304 28.2109 9.14397 23.459 7.52797 18.499C6.86397 16.451 5.84779 11.915 5.84779 9.73096ZM46.8319 56.2188C49.3759 56.2188 50.8319 55.6111 52.4879 53.9551C53.6079 52.8351 54.5199 50.9709 54.5199 48.7549V41.4111C54.5199 38.1071 52.2079 35.1709 49.3119 34.3389C47.9119 33.9389 46.2159 33.8749 44.1759 33.2749C41.5759 32.5069 39.7759 31.4507 36.9999 32.3867C34.1839 33.3227 33.4639 35.0907 32.2479 35.9067C27.3199 32.6027 24.416 29.699 21.12 24.771C21.888 23.619 24.064 22.5308 24.768 19.5708C25.464 16.6268 24.208 14.7471 23.6 12.3071C23.28 11.0511 23.1358 9.98688 22.8878 8.65088C22.2558 5.21088 19.3998 2.49903 15.6078 2.49903H8.14394C4.48794 2.49903 1.45585 5.40296 0.959855 8.62696C0.375855 12.427 2.95991 21.123 4.51991 24.835C5.77591 27.843 7.37598 30.7867 9.18398 33.4907L12.0238 37.4189C12.7758 38.3309 15.3359 41.2428 15.9679 41.7388C16.2799 41.9788 16.5518 42.2989 16.8478 42.5869L18.5758 44.187C21.0478 46.187 23.6959 48.163 26.4799 49.707C29.9199 51.627 29.7599 51.4192 33.2079 52.9712L35.736 53.8828C38.36 54.7548 43.9039 56.2188 46.8319 56.2188ZM54.2958 24.4268C55.1278 24.4268 55.5359 24.4272 56.2799 23.6592C56.7839 23.1312 56.9359 22.6989 56.9359 21.8989C56.9359 18.2509 54.5599 13.0512 52.4559 10.0752C49.3279 5.6432 44.848 2.71512 39.736 0.995121C38.92 0.723122 37.1918 0.162823 35.6798 0.0908241H35.0399C34.4799 0.122822 33.968 0.250839 33.6 0.50684C31.792 1.77084 32.4638 4.48297 34.3998 4.93897C36.6478 5.47497 37.1358 5.08295 40.3998 6.52295C42.2558 7.33895 44.4798 8.68294 45.8878 10.1069C47.8238 12.0589 48.4638 12.8031 49.7758 15.1631C50.0398 15.6271 50.0958 15.6751 50.3278 16.2271C51.1518 18.2351 51.3599 18.571 51.7999 20.835C51.9919 21.851 52.0398 24.4268 54.2958 24.4268Z" fill="white"/>
</svg>
