<svg width="807" height="829" viewBox="0 0 807 829" fill="none" xmlns="http://www.w3.org/2000/svg">
<path fill-rule="evenodd" clip-rule="evenodd" d="M187.293 678.165C178.273 689.52 148.706 687.504 160.283 665.09C165.837 654.349 183.066 656.389 187.736 665.434C189.825 669.465 189.604 675.241 187.293 678.165ZM149.419 651.278C140.326 667.745 109.997 661.501 122.286 640.193C134.255 619.425 160.848 630.632 149.419 651.278ZM117.985 618.639C111.447 631.149 77.6775 634.86 87.3119 607.382C94.9801 585.582 127.422 600.648 117.985 618.639ZM297.794 505.606C331.023 515.118 323.478 482.307 271.521 482.43C247.287 482.479 233.647 497.25 208.651 512.217C199.73 517.575 170.31 538.122 163.183 533.403C158.267 530.11 158.439 521.852 161.659 516.346C164.756 511.013 201.376 473.286 206.783 469.01C239.889 442.663 261.419 432.341 310.747 448.955C328.442 454.903 331.662 454.976 339.994 465.299C354.494 483.29 365.628 499.511 377.819 519.984C381.751 526.571 391.312 542.989 392.098 551.345C393.573 566.927 388.977 578.061 380.94 585.311C368.332 579.117 302.193 518.46 297.794 505.606ZM212.51 441.041C212.756 442.761 213.026 442.294 211.257 441.901C211.404 443.621 211.723 443.155 209.954 442.811L206.39 446.817C206.341 448.341 206.661 447.898 205.014 447.652C205.21 449.373 205.481 448.881 203.687 448.488C203.76 450.307 204.129 449.668 202.04 449.889C197.591 455.591 183.877 463.406 177.61 469.206C161.143 484.518 143.889 499.02 141.038 521.828C139.023 537.901 144.578 547.904 156.326 552.156C176.356 559.382 205.481 535.173 217.868 526.89C225.929 521.483 236.105 514.848 245.542 509.981C263.656 500.642 265.253 502.337 276.928 513.127L344.614 579.339C351.643 587.032 361.917 593.889 368.381 601.237C376.418 610.38 373.96 628.518 358.673 627.388C339.404 625.987 322.101 598.608 313.204 610.257C305.536 620.261 322.052 626.995 332.055 634.294C336.872 637.784 340.657 640.267 346.31 642.897C346.851 661.256 329.352 657.397 317.628 651.99C308.338 647.738 295.558 634.786 284.989 643.88C280.737 662.288 310.55 665.705 318.956 675.413C314.507 685.588 300.768 696.058 286.513 687.455C269.948 677.428 248.86 656.34 248.541 681.754C252.448 685.317 276.068 699.498 278.255 704.611C275.601 710.583 267.76 714.687 259.428 712.328L222.022 693.157C214.28 689.102 210.961 685.932 205.554 681.582C208.577 664.623 207.25 648.844 187.957 642.356C181.763 640.291 176.234 641.619 170.261 639.407C166.575 625.914 167.041 624.266 156.891 616.893C150.918 612.568 150.255 613.895 142.538 612.666C135.189 611.462 136.344 608.857 134.083 602.663C125.677 579.437 112.553 578.847 85.37 581.723C71.7294 552.131 76.2764 551.148 88.2948 531.118C103.877 505.065 118.181 467.069 147.404 452.101C159.619 445.858 186.605 437.452 203.342 439.025C203.342 439.025 203.809 437.846 209.487 437.6C212.412 437.477 212.19 437.6 214.894 438.092C213.69 441.68 213.862 440.205 212.51 441.041ZM303.103 421.207C301.333 420.839 300.842 421.944 299.834 415.136C297.376 398.718 288.7 324.936 290.003 317.391C290.937 312.107 298.359 293.059 300.915 289.151C306.912 299.105 308.19 408.107 303.103 421.207ZM489.229 306.38C488.983 300.727 490.359 296.058 492.645 292.593C504.516 295.788 499.404 323.511 502.476 335.382C512.258 336.611 546.15 337.053 554.679 335.161C556.153 332.335 556.104 329.828 556.154 325.969C556.154 322.692 556.039 319.414 555.809 316.137C554.63 300.211 550.009 283.573 545.167 268.851C536.491 242.528 522.925 214.239 509.776 190.03C503.631 178.725 503.558 175.235 492.473 169.238C482.495 163.831 449.954 147.683 437.911 147.118C435.158 162.676 425.327 200.328 420.387 218.048C415.963 233.999 416.43 236.727 410.359 236.064C407.975 224.906 407.779 188.285 405.542 183.074C404.117 179.732 398.685 176.021 395.539 174.964C391.238 179.855 388.854 178.503 387.625 187.523L383.447 223.628C382.267 236.974 383.865 236.875 377.376 236.212C375.656 233.287 357.96 153.385 353.143 146.675C341.223 150.706 327.779 156.58 315.908 161.348C291.011 171.4 296.246 168.476 286.906 183.567C266.433 216.82 254.464 255.185 241.315 292.568C235.17 309.993 233.819 314.761 235.49 335.824C236.473 348.186 249.229 422.337 249.008 423.075C247.041 425.705 244.092 427.793 238.832 428.236C232.196 428.826 233.253 427.105 227.748 425.188C205.481 417.422 163.06 430.94 148.707 429.317C148.903 423.689 152.934 420.347 154.605 414.694C143.693 411.548 112.774 389.551 103.975 386.454L103.41 387.094L102.82 387.732L77.235 429.809C69.96 441.753 3.57593 551.05 0.896973 558.792L51.7236 592.242L61.8492 575.382C63.7909 578.257 72.3439 592.684 72.0244 595.511C71.2379 602.958 64.1351 607.382 67.0107 620.654C70.5744 636.973 82.4702 645.968 100.83 648.033C99.5516 672.045 116.19 683.671 140.153 679.419C150.107 712.82 177.929 700.015 183.902 702.989C190.046 706.037 190.685 729.655 226.421 720.341C241.659 716.384 247.385 736.807 275.65 728.377C286.783 725.059 295.631 719.111 297.892 708.223C308.706 706.847 320.995 704.316 327.877 695.64C330.581 692.248 333.923 667.425 345.622 673.127C347.564 679.517 347.195 730.294 347.343 741.575C347.662 764.801 347.982 788.027 348.031 811.228C348.055 823.959 346.064 828.285 359.656 828.285H715.465C725.911 828.285 724.755 821.797 724.706 812.31C724.608 793.041 725.813 752.144 724.535 737.84L711.484 737.79L711.336 806.853C711.336 814.571 711.189 814.792 703.471 814.767L368.356 814.792C359.828 814.792 361.401 812.899 361.401 804.715L362.408 645.378C407.508 635.892 386.396 603.499 396.006 593.004C409.573 578.184 401.831 580.347 406.452 574.374C410.826 575.136 410.138 577.692 412.473 582.165C414.439 585.95 415.717 587.204 417.045 590.768C422.255 589.883 462.636 566.78 470.599 562.257C468.559 555.056 461.137 543.382 457.327 536.23C447.742 518.387 422.992 477.441 416.43 462.94C433.56 462.35 452.977 466.994 457.425 455.32C461.481 444.653 459.834 373.674 459.785 358.78L710.746 359.271L711.361 649.237L724.608 649.336C725.149 598.952 724.633 548.273 724.633 497.864C724.633 475.45 727.041 358.608 723.404 347.302C718.046 344.525 716.031 345.336 708.903 345.336H469.567C450.249 345.336 451.207 343.345 443.416 352.045L417.978 378.835C409.573 387.24 391.091 406.362 381.653 411.474C379.588 402.331 382.734 400.98 386.888 396.728L416.872 366.841C423.828 359.984 429.727 353.004 436.756 346.491C449.094 334.94 441.18 334.448 464.11 334.448L490.458 334.669L489.229 306.38Z" fill="#1A4E9A"/>
<path fill-rule="evenodd" clip-rule="evenodd" d="M231.482 418.675C229.958 396.899 225.903 372.469 223.371 350.054C219.39 315.277 215.138 313.483 224.576 286.57C233.055 262.312 245.909 228.69 256.895 205.71C259.009 201.286 268.766 183.836 268.987 181.526C264.932 178.945 245.344 171.302 240.133 170.54L222.118 234.122C218.505 247.738 220.004 252.113 213.86 253.071C208.404 243.732 214.99 191.947 199.728 195.412C188.889 197.87 190.732 238.399 187.93 253.17C181.442 253.194 181.958 251.965 180.139 246.632C171.537 221.218 167.359 197.428 162.026 171.179C151.261 172.113 121.62 184.254 111.445 188.752C100.434 193.618 91.488 216.328 86.0072 229.698C79.3712 245.919 73.9644 261.944 67.1318 278.362C61.3069 292.469 51.7707 312.107 51.7461 329.237C51.7461 362.098 61.2329 391.861 65.2391 423.419C65.7798 427.671 65.6078 431.873 68.2621 435.068C72.2437 426.638 80.6493 415.062 85.9089 406.878C112.305 365.858 104.662 381.636 102.302 338.822C101.811 329.851 104.907 306.724 111.986 306.06C115.255 311.393 114.812 370.011 114.444 384.143C122.554 388.788 130.542 394.958 139.414 400.414C162.075 414.349 159.716 409.311 158.88 422.042C184.17 420.936 205.061 418.601 231.506 418.651M630.744 169.409C628.41 183.59 623.445 199.492 619.734 212.936C617.817 219.842 615.801 227.289 613.958 234.269C613.098 237.538 612.115 241.028 611.254 244.714C611.033 245.55 610.099 249.753 610.026 249.975C608.158 254.644 610.616 252.088 606.659 253.268C603.685 251.498 604.299 250.589 603.808 246.14C603.488 243.388 603.365 240.61 603.242 237.833C602.259 217.581 604.176 200.107 591.421 195.412C581.467 202.269 583.556 206.177 582.523 221.366C581.909 230.337 581.516 244.764 579.918 253.612C573.848 253.711 573.847 253.931 572.373 248.131L552.441 169.188C546.493 171.056 530.173 178.429 524.054 181.378C531.894 216.819 557.847 256.881 569.669 290.995C576.649 311.099 573.897 314.835 573.503 335.8L679.384 335.701C680.367 325.674 677.909 313.95 681.448 306.281C683.66 307.854 683.734 307.683 685.159 312.672C692.533 338.601 680.023 336.34 715.464 336.119C733.577 336.021 731.365 341.157 731.832 369.495C731.881 373.846 731.881 378.22 732.053 382.57L734.167 392.721C736.821 378.244 743.433 328.746 739.795 314.737C734.634 294.755 723.082 271.627 715.562 254.079L690.001 194.724C687.986 191.774 638.364 169.753 630.769 169.409" fill="#6DBAE8"/>
<path fill-rule="evenodd" clip-rule="evenodd" d="M385.952 1.39856C306.173 18.947 356.803 150.192 405.319 133.258C427.046 125.712 447.076 89.2634 448.33 57.2389C449.657 23.5676 421.049 -6.29425 385.952 1.39856ZM521.669 730.935C521.768 726.265 520.981 726.904 525.454 725.651L631.236 704.219C643.943 701.638 738.517 680.379 743.212 683.279C743.384 688.735 738.493 688.12 732.693 689.251L690.37 697.878C665.104 703.039 527.421 732.68 521.669 730.935ZM760.563 715.156L751.617 670.253L508.619 719.653L517.712 764.631L760.563 715.156Z" fill="#1A4E9A"/>
<path fill-rule="evenodd" clip-rule="evenodd" d="M191.816 35.9521C119.484 51.3623 164.904 170.588 209.438 154.097C228.707 146.969 246.649 113.003 247.312 85.5498C248.025 56.4991 223.226 29.2671 191.816 35.9521ZM584.344 35.8539C512.086 49.3224 555.294 168.647 600.418 154.416C619.441 148.395 638.12 113.863 639.079 86.6314C640.136 56.401 615.484 30.0536 584.344 35.8539ZM628.412 591.504C647.14 591.504 669.407 595.19 668.4 582.901C667.687 574.103 658.839 575.946 650.163 575.946H525.063C516.707 575.963 508.359 575.963 500.019 575.946C491.81 575.872 483.724 575.356 484.83 584.917C485.739 592.831 495.251 591.553 503.263 591.504H628.412ZM485.125 496.782C486.845 503.418 496.48 502.09 504.369 502.09H628.412C649.303 502.09 670.268 505.974 668.179 492.431C666.95 484.517 656.382 486.533 648.001 486.582H523.957C503.927 486.582 481.364 482.699 485.125 496.782ZM484.855 539.227C485.641 547.288 495.202 545.863 503.288 545.863H628.388C647.583 545.863 669.506 549.55 668.449 537.261C667.712 528.659 658.495 530.379 650.163 530.33H500.019C491.834 530.256 483.945 529.961 484.855 539.227ZM402.544 629.525C403.896 636.038 411.785 635.276 419.503 635.227H530.495C548.019 635.227 567.927 638.791 565.1 625.519C563.011 615.565 536.222 619.621 526.145 619.621H436.928C425.966 619.621 399.62 615.147 402.544 629.525Z" fill="#6DBAE8"/>
<ellipse cx="8.18703" cy="66.0278" rx="8.18703" ry="66.0278" transform="matrix(1 0 0 -1 289.893 421.207)" fill="white"/>
<path fill-rule="evenodd" clip-rule="evenodd" d="M665.399 676.371C685.331 676.322 735.494 672.979 749.872 665.188C750.044 655.357 743.236 659.757 735.445 661.502C666.087 677.182 657.829 656.856 596.09 686.374C590.438 689.077 576.256 693.305 582.376 699.523L585.62 699.917L587.931 699.105L601.006 692.42C623.617 681.68 638.314 676.42 665.399 676.371ZM766.511 705.889C774.548 704.979 786.075 702.349 794.038 700.482C802.148 698.515 808.686 692.813 806.425 682.048C804.68 673.815 797.209 668.949 786.247 670.816C780.791 671.75 764.054 674.946 760.613 676.716L766.511 705.889Z" fill="#1A4E9A"/>
<path fill-rule="evenodd" clip-rule="evenodd" d="M587.758 453.257C590.486 462.253 619.636 458.418 630.573 458.418C640.772 458.418 672.502 463.432 668.201 448.342C666.284 441.558 657.534 442.763 649.079 442.787H625.141C614.376 442.787 583.162 438.24 587.758 453.257Z" fill="#6DBAE8"/>
<path fill-rule="evenodd" clip-rule="evenodd" d="M438.844 757.92C443.808 761.091 486.721 766.473 495.446 767.26L487.04 726.313C480.159 729.287 468.853 737.398 462.07 741.724C457.916 744.378 454.721 746.442 450.125 749.343C446.119 751.874 440.761 752.857 438.844 757.92Z" fill="#1A4E9A"/>
<ellipse cx="31.641" cy="8.48753" rx="31.641" ry="8.48753" transform="matrix(1 0 0 -1 400.879 681.232)" fill="#6DBAE8"/>
<path fill-rule="evenodd" clip-rule="evenodd" d="M511.422 766.08C510.513 759.026 504.516 725.846 502.058 722.208C500.952 721.643 502.206 721.864 500.264 721.791C499.674 721.791 498.666 721.889 497.978 721.987C496.086 722.282 494.414 722.774 491.907 723.217L500.682 767.088C504.442 767.923 507.858 766.596 511.422 766.104" fill="#1A4E9A"/>
<path fill-rule="evenodd" clip-rule="evenodd" d="M212.51 441.04C210.789 440.77 211.084 440.303 211.256 441.901C209.487 441.507 209.831 441.09 209.954 442.81L206.39 446.816C204.522 446.374 204.817 445.882 205.014 447.652L203.686 448.488C201.475 447.996 202.04 447.603 202.04 449.889C204.129 449.667 203.76 450.306 203.662 448.463C205.48 448.881 205.21 449.348 205.014 447.652C206.66 447.898 206.341 448.34 206.39 446.816L209.954 442.81C211.723 443.155 211.428 443.597 211.256 441.901C213.026 442.294 212.731 442.737 212.485 441.016C213.862 440.205 213.714 441.679 214.894 438.066C212.19 437.575 212.411 437.477 209.487 437.6C203.809 437.846 203.342 439.025 203.342 439.025L211.699 438.705C213.419 440.524 212.387 437.968 212.51 441.04Z" fill="#99B7D6"/>
</svg>
