<svg width="63" height="63" viewBox="0 0 63 63" fill="none" xmlns="http://www.w3.org/2000/svg">
<path fill-rule="evenodd" clip-rule="evenodd" d="M6.99196 32.5386C6.99196 26.0106 8.03201 22.2665 11.448 17.1705C12.68 15.3305 15.4481 12.5384 17.2881 11.2984C18.5681 10.4264 19.6079 9.79439 21.0239 9.09039C27.3359 5.98639 35.8479 5.98639 42.1599 9.09039C47.3919 11.6717 51.2986 15.5811 53.8799 20.8184C56.9919 27.1224 56.9919 35.6503 53.8799 41.9463C53.1919 43.3463 52.5841 44.3303 51.7361 45.5943C47.8561 51.4023 39.904 55.9864 32.752 55.9864C28.232 55.9864 24.9119 55.5866 21.0239 53.6666C15.7919 51.0906 11.8853 47.1837 9.30397 41.9463C8.23997 39.7863 6.9839 35.7546 6.9839 32.5386M30.7119 0.562561C30.4399 0.618561 29.2561 0.530561 28.8401 0.562561C28.4161 0.602561 27.688 0.698682 27.176 0.786682C24.944 1.13868 23.0081 1.56255 20.9361 2.35455C19.9121 2.75455 19.1761 3.10671 18.1841 3.51471C16.5841 4.17071 13.72 6.13032 12.336 7.21832C11.992 7.48232 11.5441 7.80232 11.2161 8.11432C10.8641 8.43432 10.6399 8.74635 10.2639 9.05035C10.0399 9.24235 9.89612 9.30641 9.70412 9.50641C9.54412 9.69841 9.48793 9.82677 9.26393 10.0748C5.26393 14.4268 2.39999 19.1787 1.27199 25.2427C1.07199 26.3307 0.848082 27.5786 0.768082 28.6426C0.712082 29.2826 0.792061 29.8107 0.696061 30.4507C0.584061 31.2107 0.584061 31.5545 0.696061 32.3145C0.872061 33.4745 0.799902 34.6105 0.983902 35.7945C1.5279 39.2345 2.24812 41.6585 3.70412 44.7945C4.32012 46.1305 5.72 48.4107 6.584 49.5787C7.752 51.1467 8.84799 52.4026 10.272 53.7066C14.896 57.9386 19.008 60.2905 25.448 61.6905C26.92 62.0105 31.048 62.4907 32.512 62.2667C34.944 61.8987 35.7681 62.2664 39.2561 61.3384C43.0961 60.3224 46.6319 58.7225 49.7759 56.3785C51.8639 54.8265 54.0961 52.7544 55.6961 50.7144C57.4801 48.4424 58.952 46.1225 60.072 43.3785C60.864 41.4505 61.392 39.7947 61.888 37.5147C62.536 34.5307 62.6481 29.9146 62.1841 26.9786C61.5361 22.8586 60.2639 19.0824 58.1279 15.5464L55.752 12.1387C55.08 11.2667 53.696 9.71435 52.896 9.05035C52.224 8.49035 52.1761 8.26629 50.9121 7.28229C50.0961 6.64229 49.4961 6.18653 48.6641 5.62653C47.0881 4.57053 45.4239 3.65069 43.5759 2.89069C40.7359 1.73069 37.5359 0.810373 34.3279 0.570373C33.7039 0.514373 31.4079 0.330709 30.8159 0.514709C30.7893 0.525376 30.7546 0.541228 30.7119 0.562561Z" fill="#BB8C33"/>
<path d="M29.2925 48.8691C30.4918 50.3067 32.7003 50.3067 33.8997 48.8691L46.3837 33.3093C47.3122 32.1963 47.3122 30.5786 46.3837 29.4656L33.8997 13.9058C32.7003 12.4683 30.4918 12.4683 29.2925 13.9058L16.8085 29.4656C15.8799 30.5786 15.8799 32.1963 16.8085 33.3093L29.2925 48.8691Z" fill="#BB8C33"/>
</svg>
