<svg width="46" height="42" viewBox="0 0 46 42" fill="none" xmlns="http://www.w3.org/2000/svg">
<path fill-rule="evenodd" clip-rule="evenodd" d="M23.8719 36.4194C19.2399 36.4194 19.976 30.5312 23.36 30.5312C24.52 30.5312 24.952 30.6356 25.728 31.4116C27.248 32.9396 26.672 35.2515 25.056 36.0835C24.784 36.2195 24.2399 36.4194 23.8719 36.4194ZM23.568 27.8916C21.992 27.8916 21.704 26.6516 21.48 25.4116C21.288 24.3556 21.144 22.2435 21.136 21.1875C21.136 20.6595 21.056 20.6274 21.032 20.1714L20.928 18.0356C20.912 17.5236 20.824 17.4753 20.824 16.9233C20.808 15.2913 20.624 13.6116 20.624 11.6436C20.624 8.39555 24.7601 7.77933 25.9041 9.61133C27.0401 11.4433 26.44 15.8596 26.224 17.9556C26.024 19.8436 25.792 24.9715 25.288 26.4595C25.152 26.8595 25.024 27.1316 24.712 27.4116C24.48 27.6196 23.96 27.8916 23.568 27.8916ZM0.624023 36.1152C0.624023 37.7152 0.759991 38.7316 2.01599 39.9956C2.63999 40.6276 3.79201 41.3955 4.98401 41.3955H41.536C43.72 41.3955 46 39.0916 46 36.5156C46 34.8036 44.688 32.9956 43.8 31.4116L38.472 22.0195C38.232 21.6195 38.048 21.2756 37.816 20.8516L35.7841 17.2993C35.3361 16.4513 34.912 15.7794 34.464 14.9634C34.016 14.1394 33.584 13.4434 33.144 12.6274C32.264 11.0034 31.376 9.4676 30.464 7.8916C29.928 6.9556 27.56 2.60368 27.048 2.07568C26.728 1.74768 26.464 1.4355 26.104 1.1875C24.888 0.3075 23.224 0.0514765 21.72 0.563477C21.112 0.771477 20.992 0.835574 20.496 1.16357C20.104 1.42757 19.84 1.66734 19.536 2.02734C18.928 2.74734 15.576 8.81923 14.832 10.1152C13.2 12.9552 11.192 16.7074 9.53601 19.4434L4.92004 27.6196C4.68004 28.0276 4.47199 28.3555 4.23999 28.7715L1.59998 33.4355C1.19998 34.1875 0.624023 35.0192 0.624023 36.1152Z" fill="#B22319"/>
</svg>
