<svg width="92" height="72" viewBox="0 0 92 72" fill="none" xmlns="http://www.w3.org/2000/svg">
<path fill-rule="evenodd" clip-rule="evenodd" d="M22.248 11.8569C22.248 9.98493 23.768 7.96924 26.32 7.96924C31.216 7.96924 31.216 15.7451 26.32 15.7451C23.784 15.7451 22.248 13.7449 22.248 11.8569ZM15.016 7.77686C15.016 15.4729 14.536 16.0009 16.568 18.8169C17.272 19.7929 17.864 20.4892 18.824 21.2012C22.44 23.9212 27.352 24.5929 31.44 22.5449C33.3333 21.6009 34.8613 20.2889 36.024 18.6089C38.216 15.4249 38.88 10.7849 37.12 7.16895C34.736 2.25694 31.144 0.000976562 25.568 0.000976562C21.4 0.000976562 17.744 2.72109 15.76 6.12109C15.424 6.70509 15.296 7.19316 15.016 7.78516M57.8 35.5688C57.8 33.6968 59.328 31.6812 61.88 31.6812C66.784 31.6812 66.784 39.457 61.88 39.457C59.344 39.457 57.8 37.4568 57.8 35.5688ZM49.84 35.3848C49.84 42.2168 55.456 47.4248 60.96 47.4248C65.44 47.4248 68.664 46.1289 71.256 42.7129C73.28 40.0489 72.808 39.2408 72.808 35.5688C72.808 31.3128 73.304 29.7772 69.048 26.1772C61.896 20.1132 49.848 25.633 49.848 35.377M30.208 59.457C30.208 54.033 37.992 54.033 37.992 59.457C37.992 64.321 30.208 64.321 30.208 59.457ZM22.984 55.2012V63.353C23.312 66.217 28.392 71.1289 33.36 71.1289C37.296 71.1289 39.744 70.4089 42.392 67.7529C43.328 66.8009 44.048 65.9529 44.72 64.7129C46.72 60.9849 46.32 55.8251 43.784 52.3691L41.032 49.5688C40.544 49.2328 39.76 48.7608 39.288 48.5288C35.144 46.6008 30.408 47.1688 26.768 49.9048C25.408 50.9208 23.408 53.3852 22.984 55.2012ZM46.696 15.9292H86.696C91.76 15.9292 92.592 11.0248 90.088 8.84082C89.272 8.13682 88.168 7.78516 86.704 7.78516H46.696C40.336 7.78516 40.336 15.9292 46.696 15.9292ZM5.20801 39.6411H41.512C42.736 39.6411 43.848 39.2169 44.592 38.6489C46.896 36.8809 46.672 31.4888 41.32 31.4888H5.20801C-1.15999 31.4888 -1.15999 39.6411 5.20801 39.6411ZM49.84 59.2729C49.84 61.6969 51.84 63.353 54.288 63.353H86.704C93.064 63.353 93.064 55.2012 86.704 55.2012H54.28C51.832 55.2012 49.832 56.8488 49.832 59.2808" fill="#BB8C33"/>
</svg>
