<svg width="521" height="261" viewBox="0 0 521 261" fill="none" xmlns="http://www.w3.org/2000/svg">
<rect x="3.5" y="0.5" width="516.29" height="260" stroke="black"/>
<rect x="3.5" y="0.5" width="516.29" height="260" stroke="black" stroke-opacity="0.2"/>
<path d="M42.112 213.405C35.2535 213.405 29.3466 211.94 24.3915 209.009C19.4666 206.048 15.6597 201.893 12.9706 196.546C10.3118 191.167 8.98238 184.868 8.98238 177.647C8.98238 170.516 10.3118 164.232 12.9706 158.793C15.6597 153.355 19.4062 149.11 24.2102 146.058C29.0445 143.006 34.6945 141.48 41.1603 141.48C45.0881 141.48 48.8951 142.13 52.5812 143.429C56.2673 144.728 59.5757 146.768 62.5065 149.548C65.4373 152.327 67.7486 155.938 69.4406 160.379C71.1326 164.791 71.9786 170.154 71.9786 176.468V181.272H16.6416V171.12H58.6995C58.6995 167.555 57.9744 164.398 56.5241 161.648C55.0739 158.869 53.0344 156.678 50.4058 155.077C47.8074 153.475 44.7558 152.675 41.2509 152.675C37.444 152.675 34.1204 153.611 31.2803 155.485C28.4704 157.328 26.295 159.745 24.7541 162.736C23.2434 165.697 22.488 168.915 22.488 172.389V180.321C22.488 184.974 23.3038 188.932 24.9354 192.195C26.5971 195.458 28.9085 197.95 31.8695 199.673C34.8305 201.365 38.29 202.211 42.248 202.211C44.8162 202.211 47.1578 201.848 49.2728 201.123C51.3877 200.368 53.2157 199.25 54.7566 197.769C56.2975 196.289 57.4759 194.461 58.2917 192.285L71.1175 194.597C70.0902 198.373 68.2472 201.682 65.5883 204.522C62.9597 207.332 59.6513 209.522 55.663 211.094C51.705 212.634 47.188 213.405 42.112 213.405ZM137.774 159.382L125.492 161.558C124.979 159.987 124.163 158.491 123.045 157.071C121.957 155.651 120.477 154.488 118.604 153.581C116.73 152.675 114.389 152.222 111.579 152.222C107.742 152.222 104.539 153.083 101.971 154.805C99.4027 156.497 98.1186 158.687 98.1186 161.376C98.1186 163.703 98.9797 165.576 100.702 166.996C102.424 168.416 105.204 169.58 109.041 170.486L120.099 173.024C126.505 174.504 131.278 176.786 134.421 179.867C137.563 182.949 139.134 186.953 139.134 191.877C139.134 196.047 137.926 199.763 135.508 203.026C133.122 206.259 129.783 208.797 125.492 210.64C121.232 212.483 116.292 213.405 110.673 213.405C102.877 213.405 96.5172 211.743 91.5924 208.42C86.6675 205.066 83.6461 200.307 82.5282 194.144L95.6259 192.149C96.4417 195.564 98.1186 198.147 100.657 199.899C103.195 201.621 106.503 202.483 110.582 202.483C115.023 202.483 118.573 201.561 121.232 199.718C123.891 197.845 125.221 195.564 125.221 192.875C125.221 190.699 124.405 188.871 122.773 187.391C121.172 185.91 118.709 184.792 115.386 184.037L103.602 181.454C97.1064 179.973 92.3024 177.616 89.1903 174.384C86.1085 171.151 84.5676 167.057 84.5676 162.102C84.5676 157.992 85.7157 154.397 88.012 151.315C90.3083 148.233 93.4807 145.831 97.5294 144.109C101.578 142.357 106.216 141.48 111.443 141.48C118.966 141.48 124.888 143.112 129.209 146.375C133.529 149.608 136.385 153.944 137.774 159.382ZM185.125 142.387V153.264H147.1V142.387H185.125ZM157.298 125.709H170.849V191.56C170.849 194.189 171.241 196.168 172.027 197.497C172.812 198.796 173.825 199.688 175.063 200.171C176.332 200.624 177.707 200.851 179.188 200.851C180.275 200.851 181.227 200.775 182.043 200.624C182.859 200.473 183.493 200.352 183.946 200.262L186.394 211.456C185.608 211.758 184.49 212.06 183.04 212.363C181.59 212.695 179.777 212.876 177.601 212.906C174.036 212.967 170.713 212.332 167.631 211.003C164.549 209.674 162.056 207.619 160.153 204.839C158.249 202.06 157.298 198.57 157.298 194.37V125.709ZM227.286 213.405C220.759 213.405 215.064 211.909 210.2 208.918C205.335 205.927 201.558 201.742 198.869 196.364C196.18 190.986 194.836 184.702 194.836 177.511C194.836 170.29 196.18 163.975 198.869 158.567C201.558 153.158 205.335 148.958 210.2 145.967C215.064 142.976 220.759 141.48 227.286 141.48C233.812 141.48 239.507 142.976 244.372 145.967C249.236 148.958 253.013 153.158 255.702 158.567C258.391 163.975 259.736 170.29 259.736 177.511C259.736 184.702 258.391 190.986 255.702 196.364C253.013 201.742 249.236 205.927 244.372 208.918C239.507 211.909 233.812 213.405 227.286 213.405ZM227.331 202.029C231.561 202.029 235.066 200.911 237.845 198.676C240.625 196.44 242.68 193.464 244.009 189.747C245.369 186.031 246.049 181.937 246.049 177.465C246.049 173.024 245.369 168.945 244.009 165.229C242.68 161.482 240.625 158.476 237.845 156.21C235.066 153.944 231.561 152.811 227.331 152.811C223.071 152.811 219.536 153.944 216.726 156.21C213.946 158.476 211.877 161.482 210.517 165.229C209.187 168.945 208.523 173.024 208.523 177.465C208.523 181.937 209.187 186.031 210.517 189.747C211.877 193.464 213.946 196.44 216.726 198.676C219.536 200.911 223.071 202.029 227.331 202.029ZM273.458 212V142.387H286.555V153.445H287.28C288.549 149.699 290.785 146.753 293.988 144.608C297.221 142.432 300.877 141.345 304.956 141.345C305.802 141.345 306.799 141.375 307.947 141.435C309.125 141.496 310.047 141.571 310.711 141.662V154.624C310.168 154.473 309.201 154.306 307.811 154.125C306.421 153.914 305.031 153.808 303.641 153.808C300.439 153.808 297.583 154.488 295.076 155.847C292.598 157.177 290.634 159.035 289.184 161.422C287.734 163.778 287.009 166.467 287.009 169.489V212H273.458ZM340.67 213.541C336.258 213.541 332.27 212.725 328.705 211.094C325.14 209.432 322.315 207.03 320.23 203.888C318.175 200.745 317.148 196.893 317.148 192.331C317.148 188.403 317.903 185.17 319.414 182.632C320.925 180.094 322.964 178.085 325.532 176.604C328.101 175.124 330.971 174.006 334.143 173.251C337.316 172.495 340.549 171.921 343.842 171.528C348.012 171.045 351.396 170.652 353.994 170.35C356.593 170.018 358.481 169.489 359.659 168.764C360.838 168.039 361.427 166.86 361.427 165.229V164.911C361.427 160.953 360.309 157.887 358.073 155.711C355.867 153.536 352.574 152.448 348.193 152.448C343.631 152.448 340.035 153.46 337.407 155.485C334.808 157.479 333.01 159.7 332.013 162.147L319.278 159.246C320.789 155.016 322.995 151.602 325.895 149.004C328.826 146.375 332.195 144.472 336.002 143.293C339.809 142.085 343.812 141.48 348.012 141.48C350.791 141.48 353.737 141.813 356.849 142.478C359.992 143.112 362.922 144.29 365.642 146.013C368.391 147.735 370.642 150.197 372.394 153.4C374.147 156.572 375.023 160.697 375.023 165.773V212H361.789V202.483H361.245C360.369 204.235 359.055 205.957 357.303 207.649C355.55 209.341 353.299 210.746 350.55 211.864C347.8 212.982 344.507 213.541 340.67 213.541ZM343.616 202.664C347.362 202.664 350.565 201.924 353.224 200.443C355.913 198.963 357.952 197.029 359.342 194.642C360.762 192.225 361.472 189.642 361.472 186.892V177.919C360.989 178.402 360.052 178.855 358.662 179.278C357.303 179.671 355.747 180.018 353.994 180.321C352.242 180.593 350.535 180.849 348.873 181.091C347.211 181.303 345.821 181.484 344.703 181.635C342.075 181.967 339.673 182.526 337.497 183.312C335.352 184.097 333.63 185.23 332.331 186.711C331.062 188.161 330.427 190.095 330.427 192.512C330.427 195.866 331.666 198.404 334.143 200.126C336.621 201.818 339.778 202.664 343.616 202.664Z" fill="white"/>
<path fill-rule="evenodd" clip-rule="evenodd" d="M355 0.255993C358.04 5.19199 362.872 14.816 366.136 21.048L400.056 82.0239C403.816 88.7199 410.08 97.0559 410.408 105.112L410.248 200.216L425.816 200.464L425.792 102.536C425.04 95.352 376.512 12.5919 370.192 0.00794652L355 0.255993ZM418.192 0.160046C425.184 11.92 431.912 26.192 439.272 38.864L471.52 96.2159C475.704 104.168 473.408 171.896 473.52 183.976C477.264 182.584 483.464 168.712 485.968 164.2C490.848 155.4 489.312 146.912 489.328 135.512C489.408 98.768 493.776 107.304 479.232 81.928L433.472 0.00794652L418.192 0.160046ZM505.056 127.656C509.488 125.152 511.792 117.68 514.192 113.36C517.952 106.592 522.496 103.2 519.088 96.24C516.848 91.672 512.592 85.424 509.808 80.344C495.968 55.208 476.56 23.064 465.088 1.19486e-05L449.84 0.079968C455.736 17.44 504.424 92.264 505.224 103.792C505.696 110.624 505.304 120.656 505.056 127.656Z" fill="white"/>
<path fill-rule="evenodd" clip-rule="evenodd" d="M298.044 112.011L314.089 113.991C318.971 104.23 345.233 67.7428 354.9 53.6845C358.597 48.3119 362.513 43.6831 353.142 32.4495L298.044 112.011ZM329.47 114.999L345.574 116.952C349.954 108.342 371.709 79.5129 372.24 76.4372C372.84 72.9663 368.354 64.3067 366.241 62.0021L329.47 114.999ZM361.193 118.08L377.058 119.922C385.373 104.008 389.908 110.197 379.803 91.3332C375.154 96.3187 364.776 111.781 361.193 118.08Z" fill="#E7AA31"/>
<path fill-rule="evenodd" clip-rule="evenodd" d="M386 0.0880246C389.608 6.04002 393.056 13.9921 397.12 21.0801C405.256 35.3041 441.104 94.944 441.44 105.072L441.304 200.216L456.84 200.392L457.12 103.752C456.464 93.5521 409.248 15.888 401.264 1.19443e-05L386 0.0880246Z" fill="white"/>
</svg>
