<svg width="529" height="229" viewBox="0 0 529 229" fill="none" xmlns="http://www.w3.org/2000/svg">
<path fill-rule="evenodd" clip-rule="evenodd" d="M394.956 0.111656C398.572 5.27768 402.028 12.1797 406.101 18.3317C414.256 30.6773 450.186 82.4417 450.523 91.2322L450.387 173.812L465.958 173.965L466.239 90.0866C465.581 81.2335 418.257 13.8252 410.255 0.0352661L394.956 0.111656Z" fill="white"/>
<path fill-rule="evenodd" clip-rule="evenodd" d="M363.332 0.222182C366.379 4.50637 371.222 12.8595 374.493 18.2685L408.491 71.1924C412.26 77.0042 418.538 84.2394 418.867 91.2316L418.706 173.777L434.31 173.992L434.286 88.9958C433.532 82.7605 384.893 10.9291 378.559 0.00689006L363.332 0.222182ZM426.669 0.138904C433.677 10.346 440.42 22.7333 447.797 33.7319L480.119 83.5104C484.312 90.4123 482.011 149.197 482.123 159.681C485.876 158.473 492.09 146.433 494.6 142.517C499.491 134.879 497.952 127.512 497.968 117.617C498.048 85.7254 502.426 93.1342 487.848 71.1092L441.984 0.00689006L426.669 0.138904ZM513.732 110.799C518.174 108.625 520.483 102.14 522.889 98.3905C526.657 92.5162 531.212 89.5721 527.796 83.5312C525.551 79.5664 521.285 74.1435 518.495 69.7343C504.623 47.9176 485.17 20.0183 473.672 3.27354e-06L458.389 0.0694009C464.299 15.137 513.098 80.0803 513.9 90.086C514.373 96.0158 513.98 104.723 513.732 110.799Z" fill="white"/>
<path fill-rule="evenodd" clip-rule="evenodd" d="M307.388 86.6693L323.585 87.072C327.538 78.2397 350.31 44.5704 358.633 31.6345C361.816 26.6907 365.288 22.3717 354.88 13.4284L307.388 86.6693ZM339.028 86.6901L355.281 87.0651C358.841 79.2675 377.837 52.5832 378.077 49.8822C378.35 46.8339 373.058 39.7168 370.733 37.8976L339.028 86.6901ZM370.973 86.7665L386.978 87.0651C393.777 72.6363 398.885 77.6148 387.026 62.1376C382.856 66.8245 373.956 81.0311 370.973 86.7665Z" fill="#E7AA31"/>
<path d="M39.112 206.627C32.2535 206.627 26.3466 205.162 21.3915 202.231C16.4666 199.27 12.6597 195.115 9.97063 189.768C7.31179 184.39 5.98238 178.09 5.98238 170.869C5.98238 163.738 7.31179 157.454 9.97063 152.015C12.6597 146.577 16.4062 142.332 21.2102 139.28C26.0445 136.228 31.6945 134.703 38.1603 134.703C42.0881 134.703 45.8951 135.352 49.5812 136.651C53.2673 137.951 56.5757 139.99 59.5065 142.77C62.4373 145.549 64.7486 149.16 66.4406 153.601C68.1326 158.013 68.9786 163.376 68.9786 169.69V174.494H13.6416V164.343H55.6995C55.6995 160.777 54.9744 157.62 53.5241 154.87C52.0739 152.091 50.0344 149.9 47.4058 148.299C44.8074 146.698 41.7558 145.897 38.2509 145.897C34.444 145.897 31.1204 146.833 28.2803 148.707C25.4704 150.55 23.295 152.967 21.7541 155.958C20.2434 158.919 19.488 162.137 19.488 165.612V173.543C19.488 178.196 20.3038 182.154 21.9354 185.417C23.5971 188.68 25.9085 191.173 28.8695 192.895C31.8305 194.587 35.29 195.433 39.248 195.433C41.8162 195.433 44.1578 195.07 46.2728 194.345C48.3877 193.59 50.2157 192.472 51.7566 190.991C53.2975 189.511 54.4759 187.683 55.2917 185.507L68.1175 187.819C67.0902 191.596 65.2472 194.904 62.5883 197.744C59.9597 200.554 56.6513 202.745 52.663 204.316C48.705 205.857 44.188 206.627 39.112 206.627ZM134.774 152.604L122.492 154.78C121.979 153.209 121.163 151.713 120.045 150.293C118.957 148.873 117.477 147.71 115.604 146.803C113.73 145.897 111.389 145.444 108.579 145.444C104.742 145.444 101.539 146.305 98.9709 148.027C96.4027 149.719 95.1186 151.909 95.1186 154.598C95.1186 156.925 95.9797 158.798 97.7019 160.218C99.4241 161.638 102.204 162.802 106.041 163.708L117.099 166.246C123.505 167.726 128.278 170.008 131.421 173.089C134.563 176.171 136.134 180.175 136.134 185.1C136.134 189.269 134.926 192.985 132.508 196.249C130.122 199.481 126.783 202.019 122.492 203.862C118.232 205.706 113.292 206.627 107.673 206.627C99.8773 206.627 93.5172 204.965 88.5924 201.642C83.6675 198.288 80.6461 193.529 79.5282 187.366L92.6259 185.371C93.4417 188.786 95.1186 191.369 97.6566 193.121C100.195 194.844 103.503 195.705 107.582 195.705C112.023 195.705 115.573 194.783 118.232 192.94C120.891 191.067 122.221 188.786 122.221 186.097C122.221 183.921 121.405 182.093 119.773 180.613C118.172 179.132 115.709 178.014 112.386 177.259L100.602 174.676C94.1064 173.195 89.3024 170.839 86.1903 167.606C83.1085 164.373 81.5676 160.279 81.5676 155.324C81.5676 151.215 82.7157 147.619 85.012 144.537C87.3083 141.455 90.4807 139.053 94.5294 137.331C98.5781 135.579 103.216 134.703 108.443 134.703C115.966 134.703 121.888 136.334 126.209 139.597C130.529 142.83 133.385 147.166 134.774 152.604ZM182.125 135.609V146.486H144.1V135.609H182.125ZM154.298 118.931H167.849V184.782C167.849 187.411 168.241 189.39 169.027 190.719C169.812 192.019 170.825 192.91 172.063 193.393C173.332 193.846 174.707 194.073 176.188 194.073C177.275 194.073 178.227 193.998 179.043 193.846C179.859 193.695 180.493 193.575 180.946 193.484L183.394 204.678C182.608 204.98 181.49 205.283 180.04 205.585C178.59 205.917 176.777 206.098 174.601 206.128C171.036 206.189 167.713 205.554 164.631 204.225C161.549 202.896 159.056 200.841 157.153 198.061C155.249 195.282 154.298 191.792 154.298 187.592V118.931ZM224.286 206.627C217.759 206.627 212.064 205.131 207.2 202.14C202.335 199.149 198.558 194.964 195.869 189.586C193.18 184.208 191.836 177.924 191.836 170.733C191.836 163.512 193.18 157.197 195.869 151.789C198.558 146.38 202.335 142.181 207.2 139.189C212.064 136.198 217.759 134.703 224.286 134.703C230.812 134.703 236.507 136.198 241.372 139.189C246.236 142.181 250.013 146.38 252.702 151.789C255.391 157.197 256.736 163.512 256.736 170.733C256.736 177.924 255.391 184.208 252.702 189.586C250.013 194.964 246.236 199.149 241.372 202.14C236.507 205.131 230.812 206.627 224.286 206.627ZM224.331 195.251C228.561 195.251 232.066 194.134 234.845 191.898C237.625 189.662 239.68 186.686 241.009 182.969C242.369 179.253 243.049 175.159 243.049 170.687C243.049 166.246 242.369 162.167 241.009 158.451C239.68 154.704 237.625 151.698 234.845 149.432C232.066 147.166 228.561 146.033 224.331 146.033C220.071 146.033 216.536 147.166 213.726 149.432C210.946 151.698 208.877 154.704 207.517 158.451C206.187 162.167 205.523 166.246 205.523 170.687C205.523 175.159 206.187 179.253 207.517 182.969C208.877 186.686 210.946 189.662 213.726 191.898C216.536 194.134 220.071 195.251 224.331 195.251ZM270.458 205.222V135.609H283.555V146.667H284.28C285.549 142.921 287.785 139.975 290.988 137.83C294.221 135.654 297.877 134.567 301.956 134.567C302.802 134.567 303.799 134.597 304.947 134.657C306.125 134.718 307.047 134.793 307.711 134.884V147.846C307.168 147.695 306.201 147.528 304.811 147.347C303.421 147.136 302.031 147.03 300.641 147.03C297.439 147.03 294.583 147.71 292.076 149.069C289.598 150.399 287.634 152.257 286.184 154.644C284.734 157.001 284.009 159.69 284.009 162.711V205.222H270.458ZM337.67 206.763C333.258 206.763 329.27 205.947 325.705 204.316C322.14 202.654 319.315 200.252 317.23 197.11C315.175 193.967 314.148 190.115 314.148 185.553C314.148 181.625 314.903 178.392 316.414 175.854C317.925 173.316 319.964 171.307 322.532 169.826C325.101 168.346 327.971 167.228 331.143 166.473C334.316 165.717 337.549 165.143 340.842 164.75C345.012 164.267 348.396 163.874 350.994 163.572C353.593 163.24 355.481 162.711 356.659 161.986C357.838 161.261 358.427 160.082 358.427 158.451V158.134C358.427 154.175 357.309 151.109 355.073 148.933C352.867 146.758 349.574 145.67 345.193 145.67C340.631 145.67 337.035 146.682 334.407 148.707C331.808 150.701 330.01 152.922 329.013 155.369L316.278 152.468C317.789 148.238 319.995 144.824 322.895 142.226C325.826 139.597 329.195 137.694 333.002 136.515C336.809 135.307 340.812 134.703 345.012 134.703C347.791 134.703 350.737 135.035 353.849 135.7C356.992 136.334 359.922 137.512 362.642 139.235C365.391 140.957 367.642 143.419 369.394 146.622C371.147 149.794 372.023 153.919 372.023 158.995V205.222H358.789V195.705H358.245C357.369 197.457 356.055 199.179 354.303 200.871C352.55 202.563 350.299 203.968 347.55 205.086C344.8 206.204 341.507 206.763 337.67 206.763ZM340.616 195.886C344.362 195.886 347.565 195.146 350.224 193.665C352.913 192.185 354.952 190.251 356.342 187.864C357.762 185.447 358.472 182.864 358.472 180.114V171.141C357.989 171.624 357.052 172.077 355.662 172.5C354.303 172.893 352.747 173.241 350.994 173.543C349.242 173.815 347.535 174.071 345.873 174.313C344.211 174.525 342.821 174.706 341.703 174.857C339.075 175.189 336.673 175.748 334.497 176.534C332.352 177.319 330.63 178.452 329.331 179.933C328.062 181.383 327.427 183.317 327.427 185.734C327.427 189.088 328.666 191.626 331.143 193.348C333.621 195.04 336.778 195.886 340.616 195.886Z" fill="white"/>
</svg>
