<svg width="106" height="75" viewBox="0 0 106 75" fill="none" xmlns="http://www.w3.org/2000/svg">
<path fill-rule="evenodd" clip-rule="evenodd" d="M98.624 42.5864H6.89598C-1.10402 42.5864 -1.104 35.5627 2.032 33.0347C3.232 32.0747 4.81598 31.7383 6.89598 31.7383H98.624C100.704 31.7383 102.304 32.0667 103.496 33.0347C106.616 35.5627 106.624 42.5864 98.624 42.5864ZM69.04 10.7783H4.92C2.168 10.7783 -0.328015 7.84244 0.111985 5.00244C0.591985 1.84244 2.87197 0.178711 6.40797 0.178711H67.552C76.416 0.178711 74.96 10.7783 69.04 10.7783ZM52.76 67.9863C52.76 71.9863 50.872 74.1465 46.6 74.1465H6.39998C-2.46402 74.1465 -1.01603 63.5464 4.91197 63.5464H48.072C50.792 63.5464 52.76 66.4103 52.76 67.9863Z" fill="#2C2E35"/>
</svg>
