<svg width="66" height="57" viewBox="0 0 66 57" fill="none" xmlns="http://www.w3.org/2000/svg">
<path fill-rule="evenodd" clip-rule="evenodd" d="M17.9119 4.92403C21.8399 4.92403 24.4557 5.804 27.3757 8.092C29.2557 9.556 30.1677 11.004 31.3037 12.924C32.3837 14.748 34.3278 14.5483 35.1758 13.0363C36.4718 10.7643 36.7358 9.97215 39.0798 8.04415C43.0398 4.78015 49.0797 3.86801 53.9197 6.30001C56.1197 7.40401 58.0797 9.05219 59.4397 11.0842C65.1437 19.5482 60.1757 27.7641 54.4797 34.5241C54.3197 34.7241 54.2077 34.804 54.0317 34.988C53.7917 35.252 53.7917 35.3002 53.5757 35.5642L48.7917 40.3161C48.0237 40.9081 47.4797 41.516 46.7437 42.132C44.5597 43.972 40.4878 47.2603 38.0718 48.9323C37.0318 49.6523 34.4078 51.844 33.2478 51.844C32.2158 51.844 30.3678 50.3959 29.4878 49.8039C25.0238 46.8279 23.8797 45.716 19.9197 42.612C19.5677 42.34 19.5357 42.2839 19.2317 42.0119C18.1437 41.0439 14.8958 38.2201 14.1758 37.2761C13.7758 36.7481 13.3277 36.3883 12.8477 35.8923C12.5437 35.5723 12.5038 35.4279 12.2078 35.1159L9.03979 31.196C7.3998 28.764 6.20772 26.8842 5.16772 23.9802C3.10372 18.2202 4.84782 11.58 9.66382 7.884C11.8798 6.188 14.8558 4.92403 17.9038 4.92403M65.9836 16.9079V19.612C65.9516 22.428 65.6879 24.492 64.0479 27.74C63.5599 28.6999 63.1117 29.5639 62.5837 30.5319C61.5117 32.5159 57.8636 37.228 56.0876 38.988L50.8079 44.1403C49.6479 45.2603 44.8637 49.084 43.7917 49.884C42.9757 50.5 42.1759 51.1402 41.3599 51.7082C37.7999 54.2122 34.1597 57.9479 29.8157 55.0119C27.0157 53.1239 24.9438 51.8763 22.0798 49.7243C19.8238 48.0283 17.9517 46.3163 16.0237 44.8283C15.5437 44.4603 15.3678 44.1883 14.8638 43.7883C14.0478 43.1643 13.5359 42.3961 12.6719 41.7321C11.8079 41.0601 11.2878 40.2602 10.5278 39.5002L6.47168 34.78C3.56768 31.236 0.111816 24.7403 0.111816 19.6203V18.3239C0.111816 14.6279 1.6477 10.9479 3.5437 8.21993C3.8717 7.73993 4.21574 7.38015 4.58374 6.94015C4.98374 6.46015 5.16778 6.22829 5.62378 5.78829C5.91178 5.51629 5.98367 5.50827 6.26367 5.26827C12.4077 0.0682716 19.9439 -0.73204 27.2239 2.94796C28.8479 3.76396 32.7998 6.97216 33.1118 8.14816C33.6478 7.78016 35.7196 4.22808 41.0876 2.06808C44.5036 0.684078 48.2797 0.283966 51.9597 1.15597C57.1117 2.37997 61.4077 5.84413 63.9597 10.4201C64.6877 11.7321 65.9836 14.9959 65.9836 16.9079Z" fill="#BB8C33"/>
</svg>
