<svg width="31" height="48" viewBox="0 0 31 48" fill="none" xmlns="http://www.w3.org/2000/svg">
<path fill-rule="evenodd" clip-rule="evenodd" d="M6.0822 38.9022H12.1036V46.0787H6.05745L6.0822 38.9022ZM25.5474 1.54385V14.0051H23.6551V7.09871C23.6551 6.06645 22.4261 6.18887 22.4261 6.9262V14.0051H20.8533C20.6566 14.0051 19.9195 13.1936 19.5017 13.1936C19.1822 13.1936 18.9118 13.4394 18.9118 13.8326C18.9118 14.2505 19.7226 14.7418 20.0421 14.963L28.9639 21.5011L29.136 21.6241C29.2344 21.6979 29.2587 21.6732 29.2587 21.8207V46.0787H13.3573V38.4102C13.3573 38.0661 13.1115 37.6729 12.7674 37.6729H5.41841C5.0989 37.6729 4.82887 37.9437 4.82887 38.2632V46.0787H1.87931V14.2999C2.04316 14.2508 2.18239 14.1686 2.29708 14.0539L9.52304 9.40886L14.9301 5.91888L16.3065 5.03382V44.0138C16.3065 45.169 17.5107 44.8497 17.5107 44.2598V3.854C17.5107 3.48534 17.1174 3.04328 16.2817 3.58398L6.0822 10.1709C5.91835 10.302 5.7464 10.4161 5.56617 10.5144L4.50935 11.203L1.43715 13.1688C1.09307 13.4146 0.625977 13.5381 0.625977 14.1034V46.6195C0.625977 47.0783 0.863356 47.3156 1.33852 47.332H29.8977C30.2664 47.332 30.5124 46.988 30.5124 46.5947V21.4269C30.4796 21.1811 30.3731 21.0015 30.1929 20.8868L29.7012 20.5426L24.5398 16.7578C24.1957 16.4875 22.6473 15.4058 22.5244 15.2337H27.5876V17.6174C27.5876 18.4039 28.7674 18.2563 28.7674 17.7156V14.4717C28.7674 13.8327 27.1698 13.9804 26.8011 13.9804V1.59336C26.8011 0.63483 25.5474 0.659061 25.5474 1.54385Z" fill="#003D7B"/>
</svg>
