<svg width="91" height="91" viewBox="0 0 91 91" fill="none" xmlns="http://www.w3.org/2000/svg">
<path fill-rule="evenodd" clip-rule="evenodd" d="M8.47865 64.3027V26.4036C8.47865 21.2423 10.4452 16.5235 13.0258 13.9183C16.1717 10.8215 20.5466 8.9537 25.3146 8.9537H65.0319C67.6617 8.9537 70.0455 9.64181 71.9871 10.4283C74.1745 11.2885 75.5756 12.3945 77.0994 13.9183C79.6309 16.4252 81.8675 21.2424 81.8675 26.2071V64.3027C81.8675 67.1783 81.2531 69.7338 80.3929 71.8475C77.6156 78.4343 71.2499 81.9491 63.213 81.9491H26.7153C20.6692 81.9491 14.8445 80.0072 11.4773 74.9197C9.51114 71.9704 8.47865 68.3335 8.47865 64.3027ZM0.0732422 25.3962V65.3101C0.0732422 79.1718 11.3299 90.3789 25.5111 90.3789H64.835C70.537 90.3789 75.9688 88.2904 80.1716 85.2673C88.061 79.5899 90.0764 70.6928 90.0764 61.1075V29.82C90.0764 20.5789 88.9704 15.7863 83.8829 9.17496C80.1471 4.33318 72.1349 0.547913 65.6218 0.547913H24.3313C18.1132 0.547913 11.3544 3.59586 7.12707 7.79862C2.85057 12.0751 0.0732422 19.1781 0.0732422 25.3962Z" fill="#E7AA31"/>
<path fill-rule="evenodd" clip-rule="evenodd" d="M45.7855 59.8782C40.9683 59.8782 37.7977 58.8458 34.6026 55.6262C24.1572 45.1807 34.1112 27.485 48.3416 30.8521C60.6058 33.8014 63.7515 49.5561 53.8714 56.9785C51.9543 58.4286 49.0543 59.8782 45.7855 59.8782ZM21.6748 45.058C21.6748 51.8906 24.2554 57.3466 28.6547 61.7706C30.793 63.8842 32.6367 65.212 35.5368 66.5146C48.5875 72.3641 63.3584 65.0644 67.3891 51.4484C68.9129 46.2871 68.3478 40.0688 65.9884 35.4236C64.3908 32.2286 62.6701 29.9181 60.0158 27.5586C56.6732 24.5602 50.7994 22.0045 45.9576 22.0045C40.059 22.0045 36.0282 23.135 31.4322 26.3301C30.2033 27.1657 29.3677 28.0503 28.36 29.058C24.3293 33.0887 21.6996 38.8645 21.6996 45.058M63.8252 20.9965V22.201C63.8252 24.3885 66.4306 26.7973 68.618 26.7973C70.3385 26.7973 71.7638 26.6003 72.9927 25.1502C76.1878 21.3899 73.6563 16.1797 68.8146 16.1797C66.406 16.1797 63.8252 18.5879 63.8252 20.9965Z" fill="#E7AA31"/>
</svg>
