<svg width="68" height="69" viewBox="0 0 68 69" fill="none" xmlns="http://www.w3.org/2000/svg">
<path fill-rule="evenodd" clip-rule="evenodd" d="M48.3202 34.5474C48.6322 34.9874 48.9601 36.1313 49.1361 36.6353C49.3814 37.3819 49.6454 38.1288 49.9281 38.8755L54.5282 52.2192H42.2562C42.3122 51.5072 43.4161 48.6834 43.7281 47.7554C44.1921 46.3314 44.8001 44.7873 45.2721 43.3633L48.3202 34.5474ZM22.9921 0.907227H23.3922C24.3682 0.907227 25.6322 2.10762 25.6322 3.41162V9.21924H42.9122C45.7922 9.21924 47.0721 14.5235 41.9921 14.4995C40.0134 14.4888 38.0347 14.4888 36.056 14.4995C35.984 15.3555 35.6162 16.6592 35.4242 17.4272C34.4882 21.2032 32.24 26.3073 29.952 29.3633C29.432 30.0593 28.992 30.7716 28.432 31.4116C28.088 31.8116 27.072 32.9235 26.952 33.3555C30.152 35.4995 33.0322 37.2197 36.7682 38.4517C37.4642 38.6917 37.9442 38.8756 38.6642 39.0596L40.5441 39.5557L45.4401 26.6514C45.7601 25.8114 45.8561 25.0513 46.3441 25.0513H50.432C50.88 25.0513 51.4322 26.9473 51.6722 27.6353C52.0082 28.5953 52.3602 29.3796 52.6962 30.3076L58.88 46.6836C59.6 48.4916 60.1841 50.2995 60.9281 52.1475L67.056 68.4434H60.2001C59.9841 67.5234 59.6242 66.7796 59.3202 65.8916L57.1442 59.6274C57.0002 59.2434 56.8082 58.9474 56.7682 58.4194H39.8881C39.8321 58.9954 39.648 59.2436 39.472 59.7236L38.1842 63.4517C37.8882 64.3477 37.592 65.0993 37.296 65.9873C37.024 66.7633 36.7682 67.7954 36.4562 68.4434H29.7281C29.7681 67.9154 30.5922 65.9474 30.8402 65.3394L38.6962 44.5713C35.6162 43.8513 32.6562 42.6753 30.1202 41.4033C25.7442 39.2113 26.0081 38.9393 23.0001 36.9233C22.3281 37.3713 21.7202 37.9073 21.0162 38.3633C18.2722 40.1873 17.8482 40.4115 14.7362 41.9795C12.7682 42.9635 6.85612 45.0996 4.65612 45.0996C1.88812 45.0996 0.968022 41.8992 3.05602 40.3232C3.58402 39.9232 8.48004 38.8036 10.576 37.9556C12.28 37.2756 18.0962 34.5155 19.0402 33.2275C18.8562 32.9555 18.4642 32.4836 18.2162 32.2036C15.3202 28.9636 12.6721 24.0993 11.3041 19.9873C10.9361 18.8753 10.0242 15.5792 9.94421 14.4912H4.00011C2.84011 14.4992 2.22406 14.4435 1.54406 13.9155C-0.343941 12.4595 0.648192 9.21924 3.08019 9.21924H20.3602V3.41162C20.3602 2.69162 20.6802 2.12344 21.0482 1.73145C21.7362 0.995445 22.2881 0.91523 22.9921 0.907227ZM23.128 29.7954C22.568 29.4194 22.24 28.8996 21.784 28.3716C20.6721 27.1156 19.0882 24.6353 18.2882 23.1553C17.2562 21.2353 15.3922 16.4112 15.3522 14.4912H30.784C30.4 16.1232 30.0801 17.4594 29.5841 18.9634C29.1521 20.2434 28.4641 21.8433 27.8321 23.0273L26.8241 24.7876C25.7601 26.3876 25.6402 26.6917 24.4242 28.1797C23.9362 28.7797 23.544 29.1794 23.128 29.7954Z" fill="#BB8C33"/>
</svg>
