<svg width="355" height="179" viewBox="0 0 355 179" fill="none" xmlns="http://www.w3.org/2000/svg">
<path fill-rule="evenodd" clip-rule="evenodd" d="M265.096 0.881852C267.528 4.88185 269.84 10.2262 272.576 14.9942C278.048 24.5462 302.136 64.6339 302.368 71.4419L302.272 135.394L312.712 135.506L312.896 70.562C312.464 63.698 280.736 11.4982 275.36 0.826188L265.096 0.881852Z" fill="#2C2E35"/>
<path fill-rule="evenodd" clip-rule="evenodd" d="M243.896 0.969727C245.944 4.28173 249.184 10.7615 251.384 14.9375L274.176 55.9214C276.704 60.4254 280.92 66.0254 281.136 71.4414L281.032 135.361L291.488 135.529L291.48 69.7134C290.968 64.8814 258.352 9.25727 254.104 0.80127L243.896 0.969727ZM286.36 0.905273C291.072 8.80127 295.592 18.3933 300.536 26.9053L322.216 65.4653C325.016 70.8093 323.48 116.322 323.56 124.45C326.072 123.514 330.24 114.185 331.92 111.153C335.2 105.233 334.16 99.5375 334.176 91.8735C334.232 67.1775 337.168 72.9134 327.392 55.8574L296.632 0.80127L286.36 0.905273ZM344.752 86.5933C347.728 84.9133 349.28 79.8897 350.888 76.9937C353.416 72.4337 356.472 70.1536 354.176 65.4736C352.68 62.4096 349.816 58.2095 347.936 54.7935C338.64 37.9055 325.6 16.2975 317.888 0.793457L307.632 0.849609C311.6 12.5136 344.32 62.8097 344.856 70.5537C345.176 75.1457 344.92 81.8893 344.752 86.5933Z" fill="#2C2E35"/>
<path fill-rule="evenodd" clip-rule="evenodd" d="M206.376 67.9063L217.24 68.2266C219.896 61.3866 235.16 35.3145 240.744 25.2905C242.88 21.4665 245.208 18.1223 238.232 11.1943L206.376 67.9063ZM227.6 67.9307L238.496 68.2183C240.888 62.1783 253.616 41.5145 253.784 39.4185C253.968 37.0665 250.424 31.5547 248.856 30.1387L227.6 67.9307ZM249.016 67.9863L259.752 68.2183C264.312 57.0423 267.736 60.8983 259.784 48.9063C256.992 52.5463 251.024 63.5463 249.016 67.9863Z" fill="#BB8C33"/>
<path d="M26.5456 146.698C21.936 146.698 17.966 145.713 14.6357 143.744C11.3256 141.753 8.76698 138.961 6.95967 135.367C5.17267 131.752 4.27917 127.518 4.27917 122.665C4.27917 117.873 5.17267 113.649 6.95967 109.994C8.76698 106.338 11.285 103.485 14.5138 101.434C17.7629 99.3833 21.5603 98.3578 25.9059 98.3578C28.5458 98.3578 31.1045 98.7944 33.5819 99.6676C36.0593 100.541 38.2829 101.911 40.2527 103.78C42.2225 105.648 43.7759 108.075 44.9131 111.06C46.0503 114.025 46.6189 117.629 46.6189 121.873V125.102H9.42695V118.279H37.694C37.694 115.883 37.2067 113.761 36.232 111.913C35.2572 110.044 33.8865 108.572 32.1198 107.496C30.3734 106.42 28.3224 105.881 25.9669 105.881C23.4082 105.881 21.1744 106.511 19.2656 107.77C17.3771 109.009 15.915 110.633 14.8793 112.644C13.864 114.634 13.3563 116.796 13.3563 119.132V124.462C13.3563 127.589 13.9046 130.25 15.0012 132.443C16.118 134.636 17.6715 136.311 19.6616 137.469C21.6517 138.606 23.9768 139.174 26.637 139.174C28.3631 139.174 29.9368 138.931 31.3583 138.443C32.7798 137.936 34.0084 137.184 35.044 136.189C36.0797 135.194 36.8716 133.966 37.4199 132.504L46.0401 134.057C45.3497 136.596 44.111 138.819 42.324 140.728C40.5573 142.617 38.3337 144.089 35.6532 145.145C32.993 146.18 29.9571 146.698 26.5456 146.698ZM90.8403 110.39L82.5855 111.852C82.2403 110.796 81.692 109.791 80.9407 108.836C80.2096 107.882 79.2146 107.1 77.9556 106.491C76.6966 105.881 75.1228 105.577 73.2342 105.577C70.6553 105.577 68.5028 106.156 66.7767 107.313C65.0506 108.45 64.1876 109.923 64.1876 111.73C64.1876 113.293 64.7663 114.552 65.9238 115.507C67.0813 116.461 68.9495 117.243 71.5285 117.852L78.9608 119.558C83.2658 120.553 86.4743 122.086 88.5862 124.158C90.6981 126.229 91.7541 128.92 91.7541 132.23C91.7541 135.032 90.9418 137.53 89.3172 139.723C87.713 141.896 85.4691 143.601 82.5855 144.84C79.7223 146.079 76.4021 146.698 72.625 146.698C67.3859 146.698 63.1113 145.581 59.8013 143.348C56.4913 141.093 54.4606 137.895 53.7092 133.753L62.5122 132.412C63.0605 134.707 64.1876 136.443 65.8933 137.621C67.5991 138.779 69.8227 139.357 72.5641 139.357C75.5492 139.357 77.9353 138.738 79.7223 137.499C81.5093 136.24 82.4028 134.707 82.4028 132.9C82.4028 131.438 81.8545 130.209 80.7579 129.214C79.6817 128.219 78.0267 127.468 75.7929 126.96L67.8732 125.224C63.5073 124.229 60.2785 122.645 58.1869 120.472C56.1156 118.299 55.0799 115.548 55.0799 112.217C55.0799 109.455 55.8516 107.039 57.3949 104.968C58.9382 102.896 61.0705 101.282 63.7916 100.124C66.5127 98.9467 69.6298 98.3578 73.1429 98.3578C78.1993 98.3578 82.1794 99.4544 85.0833 101.647C87.9871 103.82 89.9061 106.734 90.8403 110.39ZM122.664 98.967V106.277H97.1082V98.967H122.664ZM103.962 87.7576H113.069V132.016C113.069 133.783 113.333 135.113 113.861 136.007C114.389 136.88 115.07 137.479 115.902 137.804C116.755 138.108 117.679 138.261 118.674 138.261C119.405 138.261 120.045 138.21 120.593 138.108C121.141 138.007 121.568 137.926 121.872 137.865L123.517 145.388C122.989 145.591 122.238 145.795 121.263 145.998C120.288 146.221 119.07 146.343 117.608 146.363C115.212 146.404 112.978 145.977 110.907 145.084C108.835 144.19 107.16 142.809 105.881 140.941C104.601 139.073 103.962 136.728 103.962 133.905V87.7576ZM151.001 146.698C146.614 146.698 142.787 145.693 139.517 143.683C136.248 141.672 133.709 138.86 131.902 135.245C130.095 131.631 129.191 127.407 129.191 122.574C129.191 117.72 130.095 113.476 131.902 109.841C133.709 106.206 136.248 103.384 139.517 101.373C142.787 99.363 146.614 98.3578 151.001 98.3578C155.387 98.3578 159.215 99.363 162.484 101.373C165.754 103.384 168.292 106.206 170.099 109.841C171.907 113.476 172.81 117.72 172.81 122.574C172.81 127.407 171.907 131.631 170.099 135.245C168.292 138.86 165.754 141.672 162.484 143.683C159.215 145.693 155.387 146.698 151.001 146.698ZM151.031 139.053C153.874 139.053 156.23 138.301 158.098 136.799C159.966 135.296 161.347 133.296 162.24 130.798C163.154 128.3 163.611 125.549 163.611 122.543C163.611 119.558 163.154 116.817 162.24 114.319C161.347 111.801 159.966 109.78 158.098 108.257C156.23 106.734 153.874 105.973 151.031 105.973C148.168 105.973 145.792 106.734 143.903 108.257C142.035 109.78 140.644 111.801 139.73 114.319C138.837 116.817 138.39 119.558 138.39 122.543C138.39 125.549 138.837 128.3 139.73 130.798C140.644 133.296 142.035 135.296 143.903 136.799C145.792 138.301 148.168 139.053 151.031 139.053ZM182.033 145.754V98.967H190.836V106.399H191.323C192.176 103.881 193.679 101.901 195.831 100.46C198.004 98.9975 200.461 98.2664 203.203 98.2664C203.771 98.2664 204.441 98.2867 205.213 98.3273C206.005 98.3679 206.624 98.4187 207.071 98.4796V107.191C206.706 107.09 206.056 106.978 205.122 106.856C204.187 106.714 203.253 106.643 202.319 106.643C200.167 106.643 198.248 107.1 196.562 108.014C194.897 108.907 193.577 110.156 192.602 111.76C191.628 113.344 191.14 115.152 191.14 117.182V145.754H182.033ZM227.206 146.79C224.241 146.79 221.561 146.241 219.165 145.145C216.768 144.028 214.87 142.413 213.468 140.302C212.088 138.19 211.397 135.6 211.397 132.534C211.397 129.894 211.905 127.721 212.92 126.016C213.935 124.31 215.306 122.96 217.032 121.964C218.758 120.969 220.688 120.218 222.82 119.71C224.952 119.203 227.125 118.817 229.338 118.553C232.141 118.228 234.415 117.964 236.161 117.761C237.908 117.538 239.177 117.182 239.969 116.695C240.761 116.207 241.157 115.416 241.157 114.319V114.106C241.157 111.446 240.405 109.384 238.903 107.922C237.42 106.46 235.207 105.729 232.262 105.729C229.196 105.729 226.78 106.409 225.013 107.77C223.266 109.11 222.058 110.603 221.388 112.248L212.829 110.298C213.844 107.455 215.327 105.161 217.276 103.414C219.246 101.647 221.51 100.368 224.069 99.5762C226.627 98.7639 229.318 98.3578 232.141 98.3578C234.009 98.3578 235.989 98.5812 238.08 99.0279C240.192 99.4544 242.162 100.246 243.99 101.404C245.838 102.561 247.35 104.216 248.528 106.369C249.706 108.501 250.295 111.273 250.295 114.684V145.754H241.4V139.357H241.035C240.446 140.535 239.563 141.693 238.385 142.83C237.207 143.967 235.694 144.911 233.846 145.663C231.998 146.414 229.785 146.79 227.206 146.79ZM229.186 139.479C231.704 139.479 233.856 138.982 235.643 137.987C237.451 136.992 238.822 135.692 239.756 134.088C240.71 132.463 241.187 130.727 241.187 128.879V122.848C240.862 123.173 240.233 123.477 239.299 123.762C238.385 124.026 237.339 124.259 236.161 124.462C234.984 124.645 233.836 124.818 232.719 124.98C231.602 125.122 230.668 125.244 229.917 125.346C228.15 125.569 226.536 125.945 225.074 126.473C223.632 127.001 222.475 127.762 221.601 128.757C220.748 129.732 220.322 131.031 220.322 132.656C220.322 134.91 221.155 136.616 222.82 137.773C224.485 138.911 226.607 139.479 229.186 139.479Z" fill="#2C2E35"/>
</svg>
