<svg width="61" height="49" viewBox="0 0 61 49" fill="none" xmlns="http://www.w3.org/2000/svg">
<path fill-rule="evenodd" clip-rule="evenodd" d="M6.33594 8.62764C6.33594 9.58764 8.09596 10.8598 8.85596 11.4758L22.5439 23.3557C22.8719 23.6437 22.9919 23.6678 23.3279 23.9958L26.2319 26.4519C27.3039 27.1879 28.6321 27.6999 30.3921 27.7639C33.1281 27.8599 34.472 26.6196 36 25.4436L48.3201 14.7395C48.6481 14.4355 48.776 14.4038 49.104 14.0998C49.424 13.8118 49.4239 13.7958 49.7839 13.5158C50.1279 13.2438 50.216 13.0996 50.52 12.8356L53.408 10.3557C53.832 9.95567 54.6479 9.49168 54.6479 8.77168C54.6479 7.34768 53.3279 6.17176 51.4319 7.95576C50.9519 8.41976 50.5759 8.70747 50.0959 9.15547C49.7759 9.44347 49.6881 9.45983 49.3921 9.72383L34.6321 22.5158C33.2481 23.6758 31.5921 25.5557 28.5681 24.2517C27.8721 23.9477 25.048 21.4357 24.384 20.8117L17.72 15.0515C17.168 14.6195 16.88 14.3077 16.344 13.8757L10.968 9.22774C9.73602 8.13174 8.91995 7.06758 7.75195 7.06758C6.94395 7.06758 6.33594 7.81964 6.33594 8.62764ZM7.88794 40.1315C7.88794 41.5875 9.05595 41.9318 9.75195 41.7238C10.656 41.4518 17.24 34.5234 18.376 33.3874C18.888 32.8754 19.712 32.2677 19.936 31.5397C20.136 30.8437 19.8 29.6755 18.344 29.6755C17.272 29.6755 13.712 33.6756 12.8 34.5876C11.88 35.4996 7.88794 39.0595 7.88794 40.1315ZM53.0959 40.4118C53.0959 39.0198 51.808 38.2035 50.8 37.1955L45.5681 31.9719C44.5681 30.9719 43.7521 29.6755 42.3601 29.6755C41.4001 29.6755 40.8161 30.7557 41.0481 31.5397C41.2721 32.2677 42.0959 32.8756 42.6079 33.3796C43.7439 34.5236 50.3279 41.4518 51.2319 41.7238C52.0159 41.9558 53.0959 41.3718 53.0959 40.4118Z" fill="white"/>
<path fill-rule="evenodd" clip-rule="evenodd" d="M3.36792 40.4023V7.91455C3.36792 5.20255 5.25595 3.11426 7.75195 3.11426H53.24C55.72 3.11426 57.616 5.22655 57.616 7.91455V40.3945C57.616 43.0665 55.72 45.2026 53.24 45.2026H7.75195C6.55195 45.2026 5.16797 44.4744 4.61597 43.8184C3.89597 42.9624 3.36792 41.9303 3.36792 40.4023ZM0.263916 8.48242V39.8423C0.263916 42.6183 0.775916 43.9144 2.26392 45.7544C3.29592 47.0344 5.46395 48.3145 7.75195 48.3145H53.24C56.32 48.3145 59.184 46.1302 60.176 43.3862C60.528 42.4182 60.72 41.2025 60.72 39.8345V8.47461C60.72 7.18394 60.5521 6.03437 60.2161 5.02637C59.7761 3.74637 59.44 3.4425 58.728 2.5625C57.688 1.2665 55.528 0.00244141 53.24 0.00244141H7.75195C4.66395 0.00244141 1.80011 2.18636 0.808105 4.92236C0.456105 5.89036 0.263916 7.11442 0.263916 8.48242Z" fill="white"/>
</svg>
