<svg width="68" height="51" viewBox="0 0 68 51" fill="none" xmlns="http://www.w3.org/2000/svg">
<path fill-rule="evenodd" clip-rule="evenodd" d="M61.836 28.2186C61.836 28.6364 62.1802 29.6928 62.2785 30.1597C62.426 30.8725 62.5974 31.4133 62.7203 32.0769C63.0152 33.3877 63.3188 34.6659 63.6301 35.9111C62.2292 35.5916 56.5026 32.9619 55.4703 32.9619C55.0525 32.9619 53.1847 33.8465 52.6194 34.0923C45.8605 36.6483 36.3246 36.4763 30.0819 33.355L24.0845 29.4225C22.8557 28.2182 21.6761 26.8418 20.8158 25.2934C14.7452 14.4793 26.346 2.48523 41.2891 2.48523C47.6056 2.48523 52.7179 3.7148 57.7317 7.03277C63.532 10.8914 66.8497 17.3547 64.0479 24.2119C63.3105 25.9815 61.836 27.6042 61.836 28.2186ZM16.7363 19.0508C16.7363 24.9003 20.2262 29.8162 24.5518 32.9867C28.8529 36.1326 35.2924 38.2948 40.9944 38.2948C46.721 38.2948 50.0875 37.8774 55.003 35.7146C55.7895 35.3705 56.3056 35.7143 57.5344 36.2059C58.5175 36.6237 64.9079 39.1551 65.3994 39.1551C65.8664 39.1551 66.5793 38.4917 66.5793 38.123C66.5793 37.3119 64.4409 29.0296 64.4409 28.6364C64.4409 28.2186 67.4643 24.5314 67.4643 20.0829C67.4643 15.9784 66.8008 13.5699 64.6134 10.3502C64.2693 9.8423 63.876 9.3508 63.4336 8.87564C63.1878 8.55613 63.1382 8.45785 62.8433 8.13834C62.5975 7.84341 62.3763 7.6714 62.106 7.40104L59.0585 4.96789C49.1538 -1.66806 34.2102 -1.66828 24.8953 5.04139C21.6511 7.37626 18.8739 10.4241 17.5959 14.2827C17.1781 15.5116 16.7363 17.3795 16.7363 19.0508Z" fill="white"/>
<path fill-rule="evenodd" clip-rule="evenodd" d="M0 29.8661C0 36.8215 2.85065 38.5909 3.02269 39.7952C3.07185 40.1885 0.884306 48.6924 0.884306 49.2331C0.884306 49.7246 1.57258 50.4129 2.06413 50.4129C2.60484 50.4129 9.85493 47.5127 11.133 47.0212C12.2881 46.5788 11.9935 46.8001 13.6156 47.4637C14.0252 47.6275 14.4673 47.7751 14.9425 47.9062C22.2666 50.364 30.771 50.044 37.8002 47.0947L38.9305 46.6034C39.4958 46.3576 39.6188 46.2347 40.1103 45.9644C41.1917 45.3991 45.8617 42.573 45.8617 41.2458C45.8617 41 45.6896 40.533 45.5422 40.3855C44.387 39.132 42.8385 41.4425 40.6511 42.8434C36.0551 45.7927 32.1469 46.6034 26.9365 47.0212C18.3343 47.6848 12.9277 44.195 11.8463 44.195C11.1089 44.195 5.08712 46.8984 3.85825 47.1442L5.62761 39.5987C5.62761 38.8614 5.08744 38.3696 4.64505 37.6568C1.40081 32.8642 1.81801 27.2117 5.08682 22.6649C5.67669 21.8784 6.11949 21.4849 6.73393 20.723C7.05344 20.3543 7.2745 20.2807 7.66774 19.8874C8.06098 19.5188 8.20848 19.3961 8.6263 19.0766C9.85518 18.0444 11.576 17.11 13.0261 16.3727C13.8126 16.004 14.9425 15.8811 14.9425 14.7751C14.9425 11.7275 9.53602 15.4637 8.6758 16.0044C6.78333 17.3071 5.18549 18.6586 3.75999 20.4282C1.6709 22.9843 0 26.2776 0 29.8413M27.8215 20.5265C27.8215 21.2638 28.3132 21.7063 29.0014 21.7063H53.8489C55.4465 21.7063 55.4465 19.3467 53.8489 19.3467H29.0014C28.2886 19.3467 27.8215 19.8383 27.8215 20.5265ZM27.8215 15.7832C27.8215 16.5205 28.3132 16.9878 29.0014 16.9878H44.3871C45.9846 16.9878 45.9846 14.6034 44.3871 14.6034H29.0014C28.2886 14.6034 27.8215 15.095 27.8215 15.7832ZM39.6678 25.2698C39.6678 25.9825 40.1103 26.4496 40.8476 26.4496H53.8737C55.4467 26.4496 55.4467 24.0907 53.8737 24.0907H40.8476C40.1103 24.0907 39.6678 24.557 39.6678 25.2698Z" fill="white"/>
</svg>
