<?xml version="1.0" encoding="UTF-8"?>
<svg version="1.1" xmlns="http://www.w3.org/2000/svg" width="1024" height="1024">
<path d="M0 0 C1.46742558 -0.00302935 2.93484958 -0.00692272 4.40227085 -0.01159257 C8.38912067 -0.02177918 12.37587963 -0.01971497 16.36273658 -0.01541197 C20.67964934 -0.01292781 24.99654115 -0.02197934 29.31344604 -0.02944946 C37.75033334 -0.04214854 46.18718874 -0.04399644 54.62408399 -0.0416492 C61.48102197 -0.03986172 68.33795032 -0.04162485 75.19488716 -0.04587364 C76.17302291 -0.04646883 77.15115866 -0.04706402 78.15893488 -0.04767724 C80.14628402 -0.04888905 82.13363316 -0.05010318 84.1209823 -0.05131962 C102.72203142 -0.06217514 121.32306237 -0.06004117 139.92411251 -0.05393478 C156.9376748 -0.04875848 173.95117997 -0.06004337 190.96473097 -0.07903299 C208.4533218 -0.09840279 225.94188559 -0.10666947 243.43048722 -0.10290974 C253.24170666 -0.10099754 263.05287738 -0.10348788 272.86408806 -0.11762428 C281.20928438 -0.12952752 289.55440192 -0.13095426 297.89959931 -0.11883412 C302.15583092 -0.11294013 306.41191835 -0.11186068 310.66814041 -0.12383652 C314.56566044 -0.13467584 318.46291556 -0.1316154 322.3604231 -0.11757483 C323.76858676 -0.1149227 325.17677106 -0.11731066 326.5849145 -0.1253107 C342.42140135 -0.20902367 342.42140135 -0.20902367 349.27174377 5.20600891 C349.9033844 5.92530579 350.53502502 6.64460266 351.18580627 7.38569641 C351.83291565 8.08952454 352.48002502 8.79335266 353.14674377 9.51850891 C357.81497716 17.21123153 357.09679198 26.57601205 357.07150269 35.25933838 C357.07452706 36.67066272 357.07841797 38.08198543 357.08309525 39.49330527 C357.09334704 43.35303173 357.09120066 47.21266501 357.08691466 51.07239902 C357.08444233 55.24221533 357.09346784 59.41200949 357.10095215 63.58181763 C357.11368668 71.74346885 357.11549443 79.90508716 357.11315189 88.06674664 C357.11136732 94.70165239 357.11312133 101.33654816 357.11737633 107.97145271 C357.11797152 108.91651962 357.11856671 109.86158652 357.11917993 110.83529182 C357.12039171 112.7553147 357.12160584 114.67533759 357.12282231 116.59536047 C357.13369286 134.59174353 357.13153753 152.58810785 357.12543746 170.58449198 C357.12026764 187.04096413 357.13152634 203.49737711 357.15053568 219.95383757 C357.16991607 236.86142192 357.1781698 253.76897828 357.17441243 270.67657381 C357.17250083 280.16489489 357.17498402 289.65316558 357.18912697 299.14147758 C357.20104421 307.21813515 357.20244172 315.29471132 357.1903368 323.37137001 C357.1844508 327.49009129 357.18334098 331.60866369 357.1953392 335.72737503 C357.20620676 339.50188039 357.20308443 343.27611273 357.18907752 347.05060536 C357.18518566 349.05395473 357.19597047 351.05731625 357.20737439 353.06063694 C357.15793309 361.33235167 356.71524486 369.7471376 351.62330627 376.63569641 C346.39664978 381.51390914 342.01925452 383.48799345 334.81080627 383.76069641 C328.34561492 383.5082771 323.79450728 382.0712362 319.06080627 377.61225891 C314.59060291 372.69073693 312.55948329 368.3416846 312.56471062 361.60104656 C312.56072852 360.46595455 312.55674642 359.33086254 312.55264366 358.16137379 C312.55846934 356.9191617 312.56429502 355.67694961 312.57029724 354.39709473 C312.56942495 353.0604681 312.56767354 351.72384181 312.56511891 350.38721734 C312.56064592 346.71576194 312.56864838 343.04442317 312.57867503 339.37298262 C312.58730792 335.41325168 312.58438948 331.45352738 312.58287048 327.49378967 C312.58182153 320.63376493 312.58809921 313.77377822 312.59934616 306.91376305 C312.61559679 296.99532483 312.62080872 287.07690502 312.62332214 277.15845493 C312.62769993 261.06662982 312.64101131 244.97482497 312.65992737 228.88301086 C312.678284 213.25085044 312.69244157 197.61869552 312.70094299 181.98652649 C312.70173116 180.54129756 312.70173116 180.54129756 312.70253526 179.06687208 C312.70514532 174.23337027 312.70767274 169.39986843 312.71015906 164.56636655 C312.73089417 124.46446231 312.76612199 84.3625807 312.81080627 44.26069641 C271.15342906 44.29672051 229.49612695 44.35369908 187.83881929 44.43861736 C182.91615184 44.44863432 177.99348405 44.45847854 173.07081604 44.46821594 C171.60084963 44.471128 171.60084963 44.471128 170.10118694 44.47409889 C154.25216766 44.50508486 138.40316284 44.52209003 122.55411898 44.53389063 C106.28069681 44.54631984 90.00735032 44.57386114 73.73397595 44.61530948 C63.69967045 44.64039425 53.66549053 44.65381736 43.63115323 44.65212598 C36.74186494 44.65209613 29.85270418 44.66680027 22.96346562 44.69286069 C18.99403025 44.70744823 15.02485638 44.71576017 11.05539894 44.7064991 C7.41093136 44.69814074 3.76698646 44.70855957 0.12259591 44.73303303 C-1.79893108 44.74130003 -3.7205124 44.73025835 -5.64201933 44.71819806 C-24.01656228 44.89707697 -40.42705534 51.37332222 -53.52903748 64.37397766 C-65.20465198 77.04399105 -70.52284518 92.89497097 -70.44252682 109.87237644 C-70.44562409 110.91027222 -70.44872136 111.94816799 -70.45191249 113.01751515 C-70.45987139 116.49410472 -70.45363279 119.97052193 -70.44747925 123.44711304 C-70.45033415 125.96530833 -70.4540723 128.48350276 -70.45861775 131.00169557 C-70.46651793 136.47610667 -70.46827069 141.95046638 -70.46460533 147.42488098 C-70.45920805 155.56550938 -70.46531575 163.70610077 -70.47389412 171.846725 C-70.4880631 185.54357047 -70.4934082 199.24040562 -70.49415398 212.93725777 C-70.49533279 231.64126431 -70.51053568 250.34524144 -70.52964915 269.0492373 C-70.53854798 277.76441692 -70.54681755 286.47959714 -70.55497074 295.19477749 C-70.55619737 296.5034103 -70.55619737 296.5034103 -70.55744878 297.83848013 C-70.576783 318.59908919 -70.59032618 339.35970122 -70.6025238 360.12031555 C-70.60332899 361.48270854 -70.60332899 361.48270854 -70.60415045 362.87262462 C-70.61664914 384.06946568 -70.6274298 405.2663071 -70.63621521 426.46315002 C-70.63928534 433.81924948 -70.64237763 441.17534893 -70.64549255 448.53144836 C-70.64587437 449.43937423 -70.64625618 450.34730009 -70.64664956 451.28273886 C-70.65541149 472.00963332 -70.66656529 492.73652153 -70.68662357 513.46340847 C-70.68788757 514.76990407 -70.68788757 514.76990407 -70.6891771 516.10279353 C-70.69765979 524.79793827 -70.70665473 533.49308235 -70.71636887 542.18822581 C-70.72113043 546.46585073 -70.7257459 550.7434758 -70.73025703 555.021101 C-70.73114492 555.8629649 -70.7320328 556.70482881 -70.73294758 557.57220374 C-70.74688494 571.12803068 -70.7495187 584.68383761 -70.74757738 598.23967064 C-70.7457837 611.85709062 -70.75441701 625.47447029 -70.77388578 639.09187681 C-70.78510402 647.18423491 -70.78787587 655.27649534 -70.77868943 663.36885652 C-70.77274259 669.40669655 -70.78232935 675.44440572 -70.7980038 681.48223274 C-70.8018979 683.92825136 -70.80069055 686.37428435 -70.79394691 688.82029677 C-70.78552166 692.138676 -70.79544961 695.45651119 -70.81001949 698.77485752 C-70.8031711 699.7299195 -70.79632271 700.68498149 -70.78926679 701.66898474 C-70.85217654 708.97609309 -72.22713823 714.34564254 -76.37669373 720.51069641 C-84.72184185 728.6703968 -93.89510744 727.82870542 -104.80149841 727.76863098 C-106.61761856 727.77324175 -108.43373497 727.77959584 -110.2498436 727.78753996 C-115.23311816 727.80423222 -120.21608616 727.79598731 -125.1993618 727.78359509 C-130.57640532 727.77454655 -135.95339604 727.78851336 -141.33042908 727.79951477 C-151.86115769 727.81730663 -162.39177229 727.813457 -172.92250538 727.80186421 C-181.48060861 727.7928328 -190.03867987 727.79160462 -198.5967865 727.79595947 C-199.81455174 727.7965724 -201.03231699 727.79718534 -202.28698421 727.79781684 C-204.76080609 727.79909574 -207.23462797 727.80039259 -209.70844984 727.80170721 C-232.90864297 727.81311496 -256.1087729 727.79999621 -279.30895567 727.77850574 C-299.21828543 727.7606346 -319.1275219 727.76373865 -339.03684998 727.78218079 C-362.15369834 727.80358402 -385.27049129 727.81201631 -408.38734818 727.79973173 C-410.85209909 727.79845753 -413.31685002 727.79720004 -415.78160095 727.79595947 C-417.60068533 727.79503382 -417.60068533 727.79503382 -419.45651889 727.79408947 C-428.00491589 727.79063493 -436.55327775 727.79646716 -445.10166931 727.80587769 C-455.51848982 727.81709294 -465.93518974 727.81406749 -476.35199642 727.79275471 C-481.66741002 727.78223802 -486.98262253 727.77813315 -492.29803467 727.79135132 C-497.16365361 727.80326801 -502.02888501 727.79672439 -506.89446878 727.77544111 C-508.65478714 727.77097201 -510.41513822 727.77324821 -512.17543554 727.78294426 C-530.47370882 727.87600495 -530.47370882 727.87600495 -536.79499643 721.68900758 C-541.7706845 715.79873189 -542.03918447 710.85554068 -541.94144726 703.3324728 C-541.94986831 702.1401009 -541.95828935 700.94772899 -541.96696559 699.7192246 C-541.98425113 696.41163111 -541.97470685 693.10609417 -541.95379769 689.79865299 C-541.93766252 686.19989725 -541.95635555 682.60129351 -541.97059184 679.00255305 C-541.99072202 672.69617301 -541.98853579 666.39010643 -541.97171783 660.08372116 C-541.94677767 650.70606804 -541.95613361 641.32866751 -541.97230136 631.95100643 C-542.00003597 615.20343003 -541.99356534 598.45599754 -541.97278635 581.70841885 C-541.95471235 567.0530922 -541.94819169 552.39781642 -541.9531498 537.74247932 C-541.95346298 536.77082968 -541.95377617 535.79918003 -541.95409884 534.79808645 C-541.95538508 530.85397862 -541.95672429 526.90987081 -541.95814371 522.96576303 C-541.97128911 485.95868498 -541.95023876 448.95169613 -541.91332646 411.94463789 C-541.88071701 379.05508365 -541.87618218 346.16564103 -541.89598083 313.27607727 C-541.90102356 304.8538587 -541.9060281 296.43164012 -541.91072369 288.00942135 C-541.91130187 286.97259568 -541.91188005 285.93577 -541.91247575 284.86752537 C-541.92733465 257.39670969 -541.91905872 229.92590163 -541.90365821 202.45508772 C-541.90202885 199.49981153 -541.90041061 196.54453534 -541.8988082 193.58925914 C-541.89774468 191.62875313 -541.89666498 189.66824713 -541.89556899 187.70774115 C-541.88763029 173.05975615 -541.89163165 158.41180556 -541.90123558 143.76382256 C-541.91205116 127.11180462 -541.90481244 110.45990179 -541.8737798 93.80790704 C-541.8568965 84.48442872 -541.85377143 75.16118547 -541.87036068 65.83770527 C-541.8800455 59.61425963 -541.87161972 53.39101048 -541.84829779 47.16760139 C-541.83550339 43.61881949 -541.830646 40.07051033 -541.84768232 36.52173554 C-541.8658207 32.70192169 -541.84546276 28.88287158 -541.82119274 25.06307888 C-541.83261272 23.95750426 -541.84403271 22.85192963 -541.85579875 21.71285275 C-541.77392662 15.17567811 -540.95726475 10.92340319 -536.18919373 6.26069641 C-528.80740439 0.1915726 -519.85518773 0.55453106 -510.80403137 0.63250732 C-509.25429389 0.62745583 -507.70456226 0.62022236 -506.15484393 0.61100918 C-501.91709385 0.59214586 -497.67992382 0.60428687 -493.44218874 0.62173212 C-488.86408781 0.63513464 -484.28607015 0.6196588 -479.70797729 0.60791016 C-470.74829397 0.5895516 -461.78882904 0.59803358 -452.82915257 0.61599838 C-445.54731169 0.63003441 -438.26553002 0.63391502 -430.98367691 0.63055611 C-429.94658113 0.63007866 -428.90948535 0.62960122 -427.84096242 0.62910931 C-425.73402859 0.62808297 -423.62709478 0.62702761 -421.52016099 0.62594355 C-402.89905272 0.61738031 -384.2780498 0.63404022 -365.65696716 0.66377258 C-347.59149248 0.69261737 -329.5261695 0.69968908 -311.4606781 0.6842804 C-291.78128087 0.6675181 -272.10195563 0.66348368 -252.42255652 0.68099076 C-250.32406402 0.68283512 -248.22557152 0.68466985 -246.12707901 0.68649483 C-244.57838035 0.68786296 -244.57838035 0.68786296 -242.99839484 0.68925874 C-235.72486842 0.69486331 -228.45137715 0.69155776 -221.17785263 0.68494987 C-212.31464231 0.67721732 -203.4515813 0.6839668 -194.58840106 0.70912492 C-190.06687099 0.72162073 -185.54557338 0.72776539 -181.0240345 0.71658325 C-176.88382876 0.70653749 -172.74408648 0.71500747 -168.6039371 0.73816443 C-167.10747611 0.7433207 -165.61097355 0.74176729 -164.11453073 0.73276978 C-154.356675 0.678987 -148.00701367 1.19231512 -140.37669373 7.63569641 C-136.18703131 12.6632913 -134.18919373 17.67881073 -134.18919373 24.26069641 C-134.98403539 30.86781773 -137.65061293 35.72211562 -142.37669373 40.44819641 C-150.54234767 45.71050673 -158.89134805 45.68440029 -168.36901855 45.62145996 C-169.79640373 45.6227741 -171.22378819 45.62540829 -172.65116882 45.62924194 C-176.56284626 45.6359452 -180.4742756 45.62396597 -184.38592155 45.6089146 C-188.67290344 45.59578346 -192.95987449 45.60020048 -197.24687099 45.60236835 C-205.56286294 45.60396124 -213.87875745 45.59012968 -222.19472438 45.57086437 C-231.81687312 45.54924158 -241.43896357 45.54687887 -251.06114197 45.54450989 C-276.45800797 45.52876689 -301.85485231 45.48688345 -327.25169373 45.44819641 C-383.99106873 45.38632141 -440.73044373 45.32444641 -499.18919373 45.26069641 C-499.18919373 220.82069641 -499.18919373 396.38069641 -499.18919373 577.26069641 C-390.49921261 577.10240341 -390.49921261 577.10240341 -281.80931091 576.90034485 C-260.76194763 576.88227844 -260.76194763 576.88227844 -250.90092468 576.87892151 C-244.03091412 576.87520307 -237.16103482 576.86058025 -230.2910614 576.83839417 C-222.35416936 576.81280077 -214.41740248 576.80138324 -206.48046894 576.80691661 C-202.42670267 576.80931005 -198.37321554 576.80571156 -194.3195014 576.78383589 C-165.61237486 576.63658817 -141.97534297 579.85209621 -117.18919373 595.26069641 C-116.85919373 595.59069641 -116.52919373 595.92069641 -116.18919373 596.26069641 C-116.18772851 594.69349348 -116.18772851 594.69349348 -116.1862337 593.09462988 C-116.14296324 547.02158735 -116.0959815 500.94855039 -116.0302124 454.87553406 C-116.02921684 454.17737953 -116.02822127 453.479225 -116.02719553 452.75991427 C-116.0055341 437.58503651 -115.98321119 422.41015979 -115.96020744 407.23528401 C-115.94892949 399.79290864 -115.93779762 392.35053305 -115.92674255 384.90815735 C-115.92563999 384.16757419 -115.92453742 383.42699104 -115.92340145 382.66396597 C-115.88776953 358.6843879 -115.86177307 334.70481122 -115.84080404 310.72521623 C-115.81919417 286.07123233 -115.78780217 261.41727961 -115.7442026 236.76332434 C-115.73804087 233.27653112 -115.7319903 229.78973771 -115.72600746 226.30294418 C-115.72482658 225.61673201 -115.7236457 224.93051983 -115.72242903 224.22351335 C-115.70374941 213.20296625 -115.69530027 202.1824342 -115.69073248 191.1618732 C-115.68591355 180.06700131 -115.66994541 168.97217877 -115.64352807 157.87733497 C-115.62955108 151.87218912 -115.62032806 145.86713783 -115.62418556 139.86197472 C-115.6276162 134.35409335 -115.61711416 128.84641332 -115.59595821 123.33857314 C-115.59072517 121.35576956 -115.59041832 119.37294487 -115.5957981 117.39014168 C-115.67699389 84.04326408 -106.71039511 55.01728897 -83.06419373 30.63569641 C-60.61197362 8.37123695 -30.98360048 -0.09231869 0 0 Z M-499.18919373 621.26069641 C-499.18919373 642.05069641 -499.18919373 662.84069641 -499.18919373 684.26069641 C-372.46919373 684.26069641 -245.74919373 684.26069641 -115.18919373 684.26069641 C-115.18919373 666.29618688 -120.73660857 651.63026098 -133.43138123 638.88569641 C-147.19821277 625.78185676 -162.25381787 620.76909171 -181.11599731 620.89993286 C-182.49492645 620.89862205 -183.87385485 620.89599058 -185.2527793 620.89216536 C-189.01334644 620.88550247 -192.77365404 620.8973946 -196.53418815 620.91249955 C-200.60015361 620.92551675 -204.66610573 620.92106645 -208.73208618 620.91879272 C-215.76718266 620.91722357 -222.80219534 620.92659526 -229.83727074 620.94350624 C-240.00865731 620.96794033 -250.18000358 620.97570601 -260.35141633 620.97947022 C-276.85587744 620.98602779 -293.36029393 621.0059701 -309.86473083 621.03437805 C-325.89239784 621.06193659 -341.92005271 621.08316138 -357.94773865 621.09590149 C-358.93653122 621.09668966 -359.92532379 621.09747783 -360.94407978 621.09828988 C-365.90481438 621.10220514 -370.86554907 621.10599623 -375.82628381 621.10972559 C-416.94729341 621.1407999 -458.06822045 621.19609132 -499.18919373 621.26069641 Z " fill="#353535" transform="translate(541.1891937255859,126.73930358886719)"/>
<path d="M0 0 C2.93958994 0.00315173 5.87816088 -0.02037543 8.81762695 -0.0456543 C22.190767 -0.09031354 35.08687219 1.11515841 48.27270508 3.31567383 C49.40973877 3.50379639 50.54677246 3.69191895 51.71826172 3.88574219 C94.98573267 11.65772851 136.03563724 31.64472074 169.27270508 60.31567383 C170.0177832 60.94989258 170.76286133 61.58411133 171.53051758 62.23754883 C185.0355034 74.04868897 197.70689251 86.79927611 208.27270508 101.31567383 C209.12919574 102.46562214 209.98596941 103.61535971 210.84301758 104.76489258 C216.88364648 112.95656909 222.24275579 121.47212461 227.27270508 130.31567383 C227.6371875 130.94747559 228.00166992 131.57927734 228.37719727 132.23022461 C249.98305506 169.97849955 259.74968603 212.7450738 259.58520508 255.94067383 C259.58304993 256.95858002 259.58089478 257.97648621 259.57867432 259.02523804 C259.52900362 273.63430906 259.27810699 287.96643236 256.27270508 302.31567383 C255.97468994 303.7779541 255.97468994 303.7779541 255.6706543 305.26977539 C246.61940582 348.53948907 228.23499836 388.74086717 199.27270508 422.31567383 C198.63848633 423.06075195 198.00426758 423.80583008 197.35083008 424.57348633 C185.53968993 438.07847215 172.78910279 450.74986126 158.27270508 461.31567383 C157.12275677 462.17216449 155.97301919 463.02893816 154.82348633 463.88598633 C146.63180981 469.92661523 138.1162543 475.28572454 129.27270508 480.31567383 C128.64090332 480.68015625 128.00910156 481.04463867 127.3581543 481.42016602 C101.27093239 496.35162468 71.93777561 505.82447583 42.27270508 510.31567383 C41.15460449 510.49300049 40.03650391 510.67032715 38.88452148 510.85302734 C28.1231621 512.39733534 17.48329498 512.65547054 6.62084961 512.63134766 C3.67238893 512.62820018 0.72494811 512.65169961 -2.22338867 512.67700195 C-15.61335395 512.72161821 -28.52496226 511.5199244 -41.72729492 509.31567383 C-42.86424805 509.12755127 -44.00120117 508.93942871 -45.17260742 508.74560547 C-88.44004228 500.9743069 -129.49042727 480.98645423 -162.72729492 452.31567383 C-163.47237305 451.68145508 -164.21745117 451.04723633 -164.98510742 450.39379883 C-178.49009325 438.58265868 -191.16148235 425.83207154 -201.72729492 411.31567383 C-202.58378558 410.16572552 -203.44055925 409.01598794 -204.29760742 407.86645508 C-210.33823632 399.67477856 -215.69734563 391.15922305 -220.72729492 382.31567383 C-221.09177734 381.68387207 -221.45625977 381.05207031 -221.83178711 380.40112305 C-242.81185406 343.74618702 -253.13675119 301.64112093 -253.04296875 259.58837891 C-253.03981702 256.64878896 -253.06334418 253.71021803 -253.08862305 250.77075195 C-253.13328229 237.3976119 -251.92781034 224.50150671 -249.72729492 211.31567383 C-249.53917236 210.17864014 -249.3510498 209.04160645 -249.15722656 207.87011719 C-241.38524024 164.60264624 -221.39824801 123.55274167 -192.72729492 90.31567383 C-192.09307617 89.5705957 -191.45885742 88.82551758 -190.80541992 88.05786133 C-178.99427978 74.5528755 -166.24369264 61.8814864 -151.72729492 51.31567383 C-150.57734661 50.45918317 -149.42760904 49.6024095 -148.27807617 48.74536133 C-140.08639966 42.70473243 -131.57084414 37.34562312 -122.72729492 32.31567383 C-122.09549316 31.95119141 -121.46369141 31.58670898 -120.81274414 31.21118164 C-84.15780811 10.23111469 -42.05274202 -0.09378244 0 0 Z M-98.72729492 69.31567383 C-99.86682617 69.90864258 -101.00635742 70.50161133 -102.18041992 71.11254883 C-118.11382717 79.78328673 -132.23573309 91.06586781 -145.13598633 103.75512695 C-146.57060434 105.16201224 -148.02848213 106.54508409 -149.48901367 107.92504883 C-183.18121784 140.29495299 -202.98862102 186.46668968 -208.72729492 232.31567383 C-208.83944336 233.18063477 -208.9515918 234.0455957 -209.06713867 234.93676758 C-213.61222111 277.8348744 -203.70004979 320.42561265 -183.72729492 358.31567383 C-182.8378418 360.0249707 -182.8378418 360.0249707 -181.93041992 361.76879883 C-173.25968202 377.70220608 -161.97710094 391.82411199 -149.2878418 404.72436523 C-147.88095651 406.15898324 -146.49788466 407.61686104 -145.11791992 409.07739258 C-138.55436 415.90907178 -131.31036194 421.67315546 -123.72729492 427.31567383 C-122.72182617 428.0659082 -121.71635742 428.81614258 -120.68041992 429.58911133 C-74.63305911 462.63346093 -17.83440994 475.31895506 38.05883789 466.86352539 C80.75274554 459.58571251 119.72250259 439.85417049 150.7980957 409.7434082 C152.23191427 408.35516797 153.68179788 406.98358063 155.13208008 405.61254883 C194.16386204 367.90387812 215.42504484 313.05958479 216.62841797 259.2824707 C217.00245694 201.74675428 194.84666823 148.59700863 155.27270508 107.31567383 C154.3780957 106.36821289 153.48348633 105.42075195 152.56176758 104.44458008 C146.17951912 97.8470945 139.36657641 92.1295201 132.03588867 86.63891602 C130.36000822 85.38119349 128.70121002 84.10336753 127.04223633 82.82348633 C62.05255727 33.63760311 -28.21211622 32.14544145 -98.72729492 69.31567383 Z " fill="#343434" transform="translate(764.727294921875,511.684326171875)"/>
<path d="M0 0 C5.78681697 3.35088785 9.53387403 8.15883304 11.6875 14.4375 C11.93359566 17.12984943 11.93359566 17.12984943 11.92800903 20.08796692 C11.93075836 21.21392273 11.93350769 22.33987854 11.93634033 23.49995422 C11.92914978 24.72562607 11.92195923 25.95129791 11.91455078 27.21411133 C11.91484283 28.51206635 11.91513489 29.81002136 11.91543579 31.14730835 C11.91600884 34.69860755 11.90426238 38.24977123 11.89028788 41.80103898 C11.87777248 45.51527609 11.87660938 49.22951642 11.87423706 52.94377136 C11.86802467 59.97370427 11.85161712 67.00357486 11.83153808 74.03348035 C11.80917158 82.03827198 11.79818376 90.04306661 11.78814721 98.04788172 C11.76725067 114.51112428 11.73207939 130.97430418 11.6875 147.4375 C13.35214294 147.42750725 13.35214294 147.42750725 15.05041504 147.41731262 C25.52578674 147.35641012 36.00112237 147.31148347 46.47663116 147.28206348 C51.86177468 147.26642975 57.24677489 147.24523324 62.63183594 147.21118164 C67.83193871 147.17850661 73.03190391 147.16062975 78.23210144 147.15286827 C80.21276514 147.14733939 82.19342159 147.13654285 84.17402649 147.12030983 C86.95537391 147.09842737 89.73615801 147.0955376 92.51757812 147.09692383 C93.33038239 147.086138 94.14318665 147.07535217 94.98062134 147.0642395 C102.93613088 147.10694378 109.32815675 149.37275161 115.21484375 154.84375 C119.58426004 159.57245516 120.8288018 165.15966295 120.6875 171.4375 C119.75666666 177.91372343 117.5261773 182.37827455 112.89453125 186.96484375 C105.94903755 191.59927052 99.25985726 191.87237414 91.16601562 191.82568359 C90.03653 191.83094055 88.90704437 191.83619751 87.74333191 191.84161377 C84.02666204 191.85476845 80.31042388 191.84609135 76.59375 191.8359375 C74.00117918 191.83795953 71.40860892 191.84087204 68.81604004 191.84463501 C63.38918094 191.84905225 57.96248273 191.84293484 52.53564453 191.82861328 C46.2780385 191.81228912 40.02072579 191.81757855 33.76312685 191.8340925 C27.72214519 191.84939147 21.68130603 191.84771548 15.64030457 191.8389473 C13.0791164 191.83694975 10.51792072 191.83938888 7.95674133 191.84638596 C4.37395558 191.85402657 0.79172865 191.84235874 -2.79101562 191.82568359 C-3.84372147 191.83175629 -4.89642731 191.83782898 -5.98103333 191.84408569 C-12.92298952 191.78439897 -19.05057162 191.2050246 -24.5546875 186.53515625 C-25.09351563 185.86355469 -25.63234375 185.19195313 -26.1875 184.5 C-26.74179687 183.83097656 -27.29609375 183.16195312 -27.8671875 182.47265625 C-32.14049033 176.45538388 -32.43502733 170.22362995 -32.44621277 162.96170044 C-32.45047775 161.70296112 -32.45474274 160.4442218 -32.45913696 159.14733887 C-32.45878752 157.77026364 -32.45832604 156.39318844 -32.45776367 155.01611328 C-32.46075901 153.55186884 -32.4641624 152.08762519 -32.46794128 150.62338257 C-32.47674667 146.66050501 -32.47911792 142.69764907 -32.47975707 138.73476267 C-32.48046946 136.25534117 -32.48260734 133.77592512 -32.48525429 131.29650497 C-32.49449577 122.6366313 -32.49859061 113.97677298 -32.49780273 105.31689453 C-32.49720204 97.26042752 -32.50775527 89.20402748 -32.5235464 81.1475774 C-32.53664473 74.21656421 -32.54198568 67.28557285 -32.54134732 60.35454738 C-32.54109304 56.22117496 -32.54390574 52.08786213 -32.55452538 47.95450211 C-32.56424522 44.06550811 -32.56425905 40.17663021 -32.55700874 36.28763199 C-32.55596777 34.86590403 -32.55829666 33.44416868 -32.5643692 32.02245331 C-32.64382484 12.12065309 -32.64382484 12.12065309 -26.9765625 5.01171875 C-19.62375884 -1.94410255 -9.3398334 -4.09173654 0 0 Z " fill="#343434" transform="translate(779.3125,598.5625)"/>
<path d="M0 0 C1.97538049 -0.00678314 3.95075466 -0.01569016 5.92611694 -0.02655029 C11.26915995 -0.04926727 16.61171808 -0.04053862 21.95476913 -0.02465487 C27.55815647 -0.01195648 33.16150353 -0.02374691 38.76489258 -0.03158569 C48.17308979 -0.04067078 57.58109047 -0.02872422 66.98925781 -0.00488281 C77.85143567 0.02232614 88.71314421 0.01351118 99.57531071 -0.01401484 C108.91745794 -0.03673735 118.25946426 -0.0398906 127.60163021 -0.02682149 C133.17424647 -0.0190443 138.74664246 -0.01793777 144.31924438 -0.03450394 C149.55946339 -0.0489951 154.79907993 -0.03884193 160.03923416 -0.01003265 C161.95720039 -0.00344667 163.87521771 -0.0052767 165.7931633 -0.01634598 C186.5565087 -0.12509098 186.5565087 -0.12509098 194.91796875 8.02197266 C199.08799647 15.02761923 200.69388991 20.7547744 199.046875 28.75244141 C197.36145751 34.16462054 194.20070882 38.48681193 189.48046875 41.64697266 C183.60217691 44.11030461 178.27914097 45.08538544 171.94189453 45.02792358 C171.13201143 45.03260356 170.32212833 45.03728353 169.48770332 45.04210532 C166.80022452 45.0539785 164.11326295 45.04462848 161.42578125 45.03515625 C159.48833928 45.03922537 157.55089964 45.04456916 155.61346436 45.05108643 C150.36970036 45.0647253 145.12611408 45.05947552 139.88234711 45.04994917 C134.38526442 45.04233481 128.88819659 45.04940311 123.39111328 45.05410767 C114.16110513 45.05956004 104.93116907 45.05238718 95.70117188 45.03808594 C85.04188572 45.02176046 74.38277174 45.02704933 63.72348976 45.04356515 C54.55889732 45.05719476 45.39435661 45.05909246 36.22975731 45.05124915 C30.76172439 45.04658076 25.2937723 45.04592485 19.82574463 45.05585861 C14.68417583 45.06454744 9.54282825 45.0584713 4.40128326 45.04117584 C2.51836768 45.03722124 0.63543337 45.03832739 -1.24747467 45.04496384 C-3.82555042 45.05321022 -6.40292544 45.04282094 -8.98095703 45.02792358 C-9.71901014 45.03461575 -10.45706326 45.04130791 -11.21748161 45.04820287 C-17.49454341 44.97825804 -23.52250733 43.60773746 -28.82421875 40.13916016 C-34.07505106 34.73158659 -36.10946047 29.54264505 -36.89453125 22.08447266 C-36.20767394 15.78828066 -34.18425079 10.07247581 -29.51953125 5.64697266 C-20.61985443 -0.98867852 -10.54465252 -0.06085767 0 0 Z " fill="#343434" transform="translate(143.51953125,553.35302734375)"/>
<path d="M0 0 C0.8098831 -0.00467997 1.6197662 -0.00935994 2.45419121 -0.01418173 C5.14167001 -0.02605491 7.82863158 -0.01670489 10.51611328 -0.00723267 C12.45355525 -0.01130178 14.3909949 -0.01664557 16.32843018 -0.02316284 C21.57219417 -0.03680171 26.81578045 -0.03155193 32.05954742 -0.02202559 C37.55663011 -0.01441123 43.05369794 -0.02147953 48.55078125 -0.02618408 C57.7807894 -0.03163645 67.01072546 -0.0244636 76.24072266 -0.01016235 C86.90000881 0.00616313 97.55912279 0.00087426 108.21840477 -0.01564157 C117.38299721 -0.02927118 126.54753792 -0.03116887 135.71213722 -0.02332556 C141.18017014 -0.01865717 146.64812223 -0.01800127 152.1161499 -0.02793503 C157.2577187 -0.03662386 162.39906628 -0.03054772 167.54061127 -0.01325226 C169.42352685 -0.00929766 171.30646116 -0.01040381 173.1893692 -0.01704025 C175.76744495 -0.02528663 178.34481997 -0.01489735 180.92285156 0 C182.02993123 -0.01003825 182.02993123 -0.01003825 183.15937614 -0.02027929 C189.43388385 0.04963709 195.49859528 1.39736101 200.76611328 4.92391968 C205.88367212 10.28335319 208.45003707 15.30803324 208.96142578 22.75595093 C208.72146129 29.3492609 205.63232741 35.15292031 201.08642578 39.81845093 C194.86520019 43.5215614 190.16311217 44.82553059 183.01823425 44.77536011 C181.78252991 44.78449676 181.78252991 44.78449676 180.52186185 44.793818 C177.77525597 44.81040019 175.02911613 44.80567904 172.2824707 44.8008728 C170.30753602 44.80821596 168.33260562 44.81680291 166.35768127 44.82653809 C161.00218517 44.84873813 155.64684301 44.85168547 150.29130721 44.84979057 C145.81580852 44.84967079 141.34034235 44.8582383 136.86485273 44.86656809 C126.30286474 44.8857972 115.74095578 44.88868795 105.17895508 44.88192749 C94.29471065 44.87528874 83.41080529 44.8981457 72.52662963 44.93524122 C63.17182503 44.9659637 53.81712935 44.97729542 44.46227533 44.97340441 C38.87952829 44.97133935 33.29704506 44.97677867 27.71434593 45.001297 C22.46189503 45.02360315 17.20999421 45.02165386 11.95754051 45.00136948 C10.03472463 44.99796617 8.11187145 45.00301912 6.18910599 45.01735306 C-12.89750416 45.14977265 -12.89750416 45.14977265 -20.53857422 39.38095093 C-22.79248047 37.06454468 -22.79248047 37.06454468 -24.10107422 34.81845093 C-24.55611328 34.07466187 -25.01115234 33.3308728 -25.47998047 32.56454468 C-28.26796118 26.81369148 -28.17107178 20.9850219 -26.47607422 14.88095093 C-24.67478617 9.97139375 -21.93226431 6.25546682 -17.53857422 3.38095093 C-11.65472456 0.92595758 -6.34064233 -0.05749264 0 0 Z " fill="#353535" transform="translate(582.53857421875,382.6190490722656)"/>
<path d="M0 0 C0.8098831 -0.00467997 1.6197662 -0.00935994 2.45419121 -0.01418173 C5.14167001 -0.02605491 7.82863158 -0.01670489 10.51611328 -0.00723267 C12.45355525 -0.01130178 14.3909949 -0.01664557 16.32843018 -0.02316284 C21.57219417 -0.03680171 26.81578045 -0.03155193 32.05954742 -0.02202559 C37.55663011 -0.01441123 43.05369794 -0.02147953 48.55078125 -0.02618408 C57.7807894 -0.03163645 67.01072546 -0.0244636 76.24072266 -0.01016235 C86.90000881 0.00616313 97.55912279 0.00087426 108.21840477 -0.01564157 C117.38299721 -0.02927118 126.54753792 -0.03116887 135.71213722 -0.02332556 C141.18017014 -0.01865717 146.64812223 -0.01800127 152.1161499 -0.02793503 C157.2577187 -0.03662386 162.39906628 -0.03054772 167.54061127 -0.01325226 C169.42352685 -0.00929766 171.30646116 -0.01040381 173.1893692 -0.01704025 C175.76744495 -0.02528663 178.34481997 -0.01489735 180.92285156 0 C182.02993123 -0.01003825 182.02993123 -0.01003825 183.15937614 -0.02027929 C189.43388385 0.04963709 195.49859528 1.39736101 200.76611328 4.92391968 C205.88367212 10.28335319 208.45003707 15.30803324 208.96142578 22.75595093 C208.72146129 29.3492609 205.63232741 35.15292031 201.08642578 39.81845093 C194.86520019 43.5215614 190.16311217 44.82553059 183.01823425 44.77536011 C181.78252991 44.78449676 181.78252991 44.78449676 180.52186185 44.793818 C177.77525597 44.81040019 175.02911613 44.80567904 172.2824707 44.8008728 C170.30753602 44.80821596 168.33260562 44.81680291 166.35768127 44.82653809 C161.00218517 44.84873813 155.64684301 44.85168547 150.29130721 44.84979057 C145.81580852 44.84967079 141.34034235 44.8582383 136.86485273 44.86656809 C126.30286474 44.8857972 115.74095578 44.88868795 105.17895508 44.88192749 C94.29471065 44.87528874 83.41080529 44.8981457 72.52662963 44.93524122 C63.17182503 44.9659637 53.81712935 44.97729542 44.46227533 44.97340441 C38.87952829 44.97133935 33.29704506 44.97677867 27.71434593 45.001297 C22.46189503 45.02360315 17.20999421 45.02165386 11.95754051 45.00136948 C10.03472463 44.99796617 8.11187145 45.00301912 6.18910599 45.01735306 C-12.89750416 45.14977265 -12.89750416 45.14977265 -20.53857422 39.38095093 C-22.79248047 37.06454468 -22.79248047 37.06454468 -24.10107422 34.81845093 C-24.55611328 34.07466187 -25.01115234 33.3308728 -25.47998047 32.56454468 C-28.26796118 26.81369148 -28.17107178 20.9850219 -26.47607422 14.88095093 C-24.67478617 9.97139375 -21.93226431 6.25546682 -17.53857422 3.38095093 C-11.65472456 0.92595758 -6.34064233 -0.05749264 0 0 Z " fill="#353535" transform="translate(134.53857421875,382.6190490722656)"/>
<path d="M0 0 C1.97538049 -0.00678314 3.95075466 -0.01569016 5.92611694 -0.02655029 C11.26915995 -0.04926727 16.61171808 -0.04053862 21.95476913 -0.02465487 C27.55815647 -0.01195648 33.16150353 -0.02374691 38.76489258 -0.03158569 C48.17308979 -0.04067078 57.58109047 -0.02872422 66.98925781 -0.00488281 C77.85143567 0.02232614 88.71314421 0.01351118 99.57531071 -0.01401484 C108.91745794 -0.03673735 118.25946426 -0.0398906 127.60163021 -0.02682149 C133.17424647 -0.0190443 138.74664246 -0.01793777 144.31924438 -0.03450394 C149.55946339 -0.0489951 154.79907993 -0.03884193 160.03923416 -0.01003265 C161.95720039 -0.00344667 163.87521771 -0.0052767 165.7931633 -0.01634598 C186.5565087 -0.12509098 186.5565087 -0.12509098 194.91796875 8.02197266 C199.08799647 15.02761923 200.69388991 20.7547744 199.046875 28.75244141 C197.36145751 34.16462054 194.20070882 38.48681193 189.48046875 41.64697266 C183.60217691 44.11030461 178.27914097 45.08538544 171.94189453 45.02792358 C171.13201143 45.03260356 170.32212833 45.03728353 169.48770332 45.04210532 C166.80022452 45.0539785 164.11326295 45.04462848 161.42578125 45.03515625 C159.48833928 45.03922537 157.55089964 45.04456916 155.61346436 45.05108643 C150.36970036 45.0647253 145.12611408 45.05947552 139.88234711 45.04994917 C134.38526442 45.04233481 128.88819659 45.04940311 123.39111328 45.05410767 C114.16110513 45.05956004 104.93116907 45.05238718 95.70117188 45.03808594 C85.04188572 45.02176046 74.38277174 45.02704933 63.72348976 45.04356515 C54.55889732 45.05719476 45.39435661 45.05909246 36.22975731 45.05124915 C30.76172439 45.04658076 25.2937723 45.04592485 19.82574463 45.05585861 C14.68417583 45.06454744 9.54282825 45.0584713 4.40128326 45.04117584 C2.51836768 45.03722124 0.63543337 45.03832739 -1.24747467 45.04496384 C-3.82555042 45.05321022 -6.40292544 45.04282094 -8.98095703 45.02792358 C-9.71901014 45.03461575 -10.45706326 45.04130791 -11.21748161 45.04820287 C-17.49454341 44.97825804 -23.52250733 43.60773746 -28.82421875 40.13916016 C-34.07505106 34.73158659 -36.10946047 29.54264505 -36.89453125 22.08447266 C-36.20767394 15.78828066 -34.18425079 10.07247581 -29.51953125 5.64697266 C-20.61985443 -0.98867852 -10.54465252 -0.06085767 0 0 Z " fill="#343434" transform="translate(591.51953125,297.35302734375)"/>
<path d="M0 0 C1.97538049 -0.00678314 3.95075466 -0.01569016 5.92611694 -0.02655029 C11.26915995 -0.04926727 16.61171808 -0.04053862 21.95476913 -0.02465487 C27.55815647 -0.01195648 33.16150353 -0.02374691 38.76489258 -0.03158569 C48.17308979 -0.04067078 57.58109047 -0.02872422 66.98925781 -0.00488281 C77.85143567 0.02232614 88.71314421 0.01351118 99.57531071 -0.01401484 C108.91745794 -0.03673735 118.25946426 -0.0398906 127.60163021 -0.02682149 C133.17424647 -0.0190443 138.74664246 -0.01793777 144.31924438 -0.03450394 C149.55946339 -0.0489951 154.79907993 -0.03884193 160.03923416 -0.01003265 C161.95720039 -0.00344667 163.87521771 -0.0052767 165.7931633 -0.01634598 C186.5565087 -0.12509098 186.5565087 -0.12509098 194.91796875 8.02197266 C199.08799647 15.02761923 200.69388991 20.7547744 199.046875 28.75244141 C197.36145751 34.16462054 194.20070882 38.48681193 189.48046875 41.64697266 C183.60217691 44.11030461 178.27914097 45.08538544 171.94189453 45.02792358 C171.13201143 45.03260356 170.32212833 45.03728353 169.48770332 45.04210532 C166.80022452 45.0539785 164.11326295 45.04462848 161.42578125 45.03515625 C159.48833928 45.03922537 157.55089964 45.04456916 155.61346436 45.05108643 C150.36970036 45.0647253 145.12611408 45.05947552 139.88234711 45.04994917 C134.38526442 45.04233481 128.88819659 45.04940311 123.39111328 45.05410767 C114.16110513 45.05956004 104.93116907 45.05238718 95.70117188 45.03808594 C85.04188572 45.02176046 74.38277174 45.02704933 63.72348976 45.04356515 C54.55889732 45.05719476 45.39435661 45.05909246 36.22975731 45.05124915 C30.76172439 45.04658076 25.2937723 45.04592485 19.82574463 45.05585861 C14.68417583 45.06454744 9.54282825 45.0584713 4.40128326 45.04117584 C2.51836768 45.03722124 0.63543337 45.03832739 -1.24747467 45.04496384 C-3.82555042 45.05321022 -6.40292544 45.04282094 -8.98095703 45.02792358 C-9.71901014 45.03461575 -10.45706326 45.04130791 -11.21748161 45.04820287 C-17.49454341 44.97825804 -23.52250733 43.60773746 -28.82421875 40.13916016 C-34.07505106 34.73158659 -36.10946047 29.54264505 -36.89453125 22.08447266 C-36.20767394 15.78828066 -34.18425079 10.07247581 -29.51953125 5.64697266 C-20.61985443 -0.98867852 -10.54465252 -0.06085767 0 0 Z " fill="#343434" transform="translate(143.51953125,297.35302734375)"/>
<path d="M0 0 C1.24750842 -0.00679667 1.24750842 -0.00679667 2.52021903 -0.01373065 C5.30525855 -0.02638446 8.09010277 -0.02475364 10.87516785 -0.02310181 C12.87275443 -0.02908646 14.8703387 -0.03589186 16.86791992 -0.04345703 C22.29362015 -0.06113107 27.7192573 -0.06581302 33.14498353 -0.0670886 C37.67524052 -0.06898793 42.20548283 -0.0763459 46.73573416 -0.08343279 C57.42512327 -0.09971984 68.11447869 -0.10460147 78.80387878 -0.10317993 C89.82780427 -0.10197853 100.85153396 -0.12307949 111.8754099 -0.15466726 C121.34223343 -0.18082608 130.80899299 -0.19154738 140.27585238 -0.19026911 C145.92895462 -0.18975935 151.58188289 -0.19545066 157.23494911 -0.21662521 C162.55295624 -0.23600073 167.87062333 -0.23613659 173.1886425 -0.22159195 C175.13809837 -0.21950189 177.08757548 -0.22421649 179.03699493 -0.23631287 C181.70336547 -0.25178355 184.36856618 -0.24244541 187.03491211 -0.22705078 C188.18547229 -0.24248147 188.18547229 -0.24248147 189.35927612 -0.25822389 C195.73808078 -0.17712772 200.84580746 1.84732836 205.73136902 5.97836304 C210.29862021 11.60162607 212.22553019 16.59736018 212.01652527 23.90023804 C211.11204126 30.83843179 207.93690302 35.71900559 202.58683777 40.07601929 C197.6530704 43.20449964 193.14620524 43.55778929 187.41586304 43.53485107 C186.16835462 43.54164774 186.16835462 43.54164774 184.89564401 43.54858172 C182.11060449 43.56123554 179.32576027 43.55960471 176.54069519 43.55795288 C174.54310861 43.56393753 172.54552434 43.57074293 170.54794312 43.57830811 C165.12224289 43.59598215 159.69660574 43.60066409 154.27087951 43.60193968 C149.74062252 43.60383901 145.21038021 43.61119697 140.68012887 43.61828387 C129.99073976 43.63457091 119.30138434 43.63945255 108.61198425 43.63803101 C97.58805877 43.6368296 86.56432908 43.65793056 75.54045314 43.68951833 C66.07362961 43.71567716 56.60687004 43.72639846 47.14001065 43.72512019 C41.48690842 43.72461042 35.83398014 43.73030173 30.18091393 43.75147629 C24.8629068 43.7708518 19.54523971 43.77098767 14.22722054 43.75644302 C12.27776467 43.75435296 10.32828756 43.75906756 8.3788681 43.77116394 C5.71249756 43.78663463 3.04729685 43.77729649 0.38095093 43.76190186 C-0.76960926 43.77733254 -0.76960926 43.77733254 -1.94341308 43.79307497 C-8.93586054 43.70417732 -14.1075953 41.40335487 -19.10456848 36.51742554 C-22.99788915 30.7330634 -25.14557499 25.33933657 -24.29206848 18.26742554 C-22.40426914 11.22188871 -19.59318255 6.14503419 -13.29206848 2.26742554 C-8.90773822 0.06280643 -4.8069717 -0.01924202 0 0 Z " fill="#343434" transform="translate(131.2920684814453,468.7325744628906)"/>
</svg>
