<svg width="174" height="175" viewBox="0 0 174 175" fill="none" xmlns="http://www.w3.org/2000/svg">
<path fill-rule="evenodd" clip-rule="evenodd" d="M87.4343 138.079C88.909 138.079 91.6126 139.922 92.8414 140.66C94.4963 141.626 96.1431 142.568 97.7816 143.486L102.746 146.312C105.499 147.836 106.924 148.229 106.924 150.269C106.924 151.867 105.72 152.432 105.401 153.661L94.6112 147.517C91.0966 145.55 87.0411 143.068 83.7231 141.299C84.4113 139.996 85.7139 138.104 87.4343 138.104M5.98439 85.6055C5.98439 79.2399 8.1964 77.2735 12.7678 74.2505C13.8247 73.5623 15.029 72.653 16.1595 72.0386L27.2194 91.1108C27.8092 92.0939 28.3502 93.0282 28.8417 93.913C26.556 95.1419 23.6064 97.7958 23.6064 100.843C23.6064 103.301 24.0244 104.162 25.2287 106.005L29.9968 113.428L31.2258 115.246L32.553 117.139C33.4378 118.319 34.2239 119.474 35.1579 120.629C36.141 121.809 38.7953 125.249 39.9751 126.478C40.27 126.773 40.4666 126.92 40.7124 127.24C41.7938 128.567 45.3821 132.032 46.8568 133.483L53.4193 139.111C57.7695 142.331 59.588 143.682 64.5035 146.656C65.8553 147.443 66.9614 148.18 68.2886 148.967C70.8447 150.515 70.8446 150.81 73.8922 150.81C77.0627 150.81 80.0857 147.566 80.5035 145.723C81.2409 145.895 82.5189 146.779 83.2562 147.197C84.2393 147.762 85.0505 148.279 86.0336 148.82C88.5651 150.245 101.763 158.085 102.501 158.257C102.353 158.871 101.812 159.486 101.444 160.075C99.5021 163.369 97.9781 166.171 94.316 167.867C91.2684 169.292 87.7294 169.022 84.8538 167.621C84.1411 167.301 83.6249 167.031 82.9367 166.662L72.7124 161.821C72.0734 161.477 71.4589 161.28 70.7462 160.911C65.8798 158.453 62.1195 157.028 56.8845 153.956L53.198 151.719C48.2334 148.77 40.909 142.724 36.6325 138.447L33.708 135.449C33.3885 135.105 33.3885 135.031 33.1181 134.712L25.7448 125.618C23.5328 122.251 21.9846 120.039 19.9938 116.5L18.9122 114.533C18.2486 113.304 17.4867 111.83 16.946 110.552C16.3069 109.053 15.668 108.021 15.0536 106.521C14.7587 105.759 14.4144 105.169 14.0703 104.456C13.677 103.719 13.456 103.056 13.0873 102.368L8.36842 92.3889C7.38532 90.4718 5.98439 87.8912 5.98439 85.6055ZM20.8785 69.1877C26.1872 65.6485 25.6466 67.8364 30.2181 75.4063L35.2809 84.2539C37.0996 87.621 36.8292 88.0879 34.1011 90.177C33.6341 90.5457 33.757 90.6437 33.0934 90.6683C32.9459 90.1767 31.9876 88.6287 31.6435 88.0634L20.8785 69.1877ZM50.1993 59.0125C50.1993 70.3919 53.149 79.5351 58.5069 88.8254C59.9815 91.4306 61.8737 94.0848 63.8645 96.3214L67.5022 100.303C69.4684 102.269 72.1719 104.482 74.3839 106.128C76.3992 107.587 78.5128 108.913 80.7248 110.11C86.7463 113.452 96.4546 116.917 104.049 117.286C113.266 117.728 125.284 117.458 134.697 117.458C138.58 117.458 140.645 117.704 142.857 119.449C147.035 122.767 147.625 129.009 143.988 132.966C137.966 139.504 128.258 131.344 122.114 140.585C120.024 143.707 120.688 148.008 120.639 151.842C120.614 155.701 116.043 160.297 112.184 160.297C110.955 160.297 109.456 160.1 108.448 159.609C108.522 158.675 110.046 156.586 110.611 155.676C111.938 153.587 112.331 152.456 112.331 149.777C112.331 145.181 108.252 143.388 104.909 141.495L91.4407 133.778C88.3685 131.935 84.9029 132.303 82.1994 134.368C80.6264 135.572 75.957 142.724 74.8755 144.346C72.9831 147.173 71.5326 145.28 69.3698 143.977C63.7416 140.659 57.2286 136.432 52.436 131.959C52.1165 131.664 52.0674 131.59 51.6987 131.344L48.8721 128.739C43.6863 123.504 41.6463 121.366 37.2715 115.467C36.4359 114.361 35.8215 113.428 35.0596 112.273L32.8477 108.881C32.2087 107.898 28.6696 102.933 28.6696 101.876C28.6696 100.5 31.078 99.246 32.1348 98.5333C33.929 97.3536 37.714 94.8466 39.1395 93.544L39.582 93.1262L39.9998 92.6837C40.5405 92.0447 40.9092 91.4057 41.2779 90.57C42.9246 86.6376 40.737 83.1971 38.82 80.0266C36.141 75.6026 33.7326 70.8837 31.0536 66.4597C29.7019 64.174 27.1211 62.4042 23.7785 62.4042C20.7309 62.4042 16.9704 65.3043 14.4389 66.951L7.95064 71.0065C4.19027 73.2185 1.65866 77.0038 0.675553 81.3294C-0.799102 87.6213 2.12589 92.4872 4.63281 97.4765L16.1843 120.948C18.5437 125.176 23.4837 132.5 27.0229 136.186L29.4808 139.013C31.2012 140.708 32.8722 142.945 34.7892 144.371C35.6494 145.035 38.6235 147.91 40.3685 149.286L41.2779 150.073L48.4052 155.283L50.6171 156.684C51.3299 157.175 51.9445 157.495 52.7064 157.937L59.4407 161.723C63.3731 163.615 67.4039 165.36 71.3117 167.301L83.2071 173.003C88.4912 175.363 95.2503 174.528 99.8218 171.16C101.444 169.981 104.737 166.294 105.228 164.352C105.671 164.565 106.163 164.762 106.703 164.942C113.511 167.67 120.368 164.721 124.202 158.945C125.186 157.47 125.923 155.578 126.267 153.735C126.414 153.096 126.341 152.211 126.464 151.4C126.906 148.45 125.751 144.616 127.619 142.724C129.61 140.708 132.879 141.323 136.049 141.323C138.531 141.323 140.424 141.274 142.513 140.512C145.364 139.48 147.772 137.563 149.542 135.154C153.155 130.141 153.008 123.086 149.444 118.122C148.756 117.155 147.936 116.287 146.986 115.517C143.324 112.69 140.596 112.027 135.385 112.027C128.553 112.027 110.881 112.321 105.228 111.854C89.4251 110.552 75.2194 102.613 66.1502 90.4718C59.9567 82.1646 55.7786 71.744 55.7786 60.5366C55.7786 55.5474 56.1963 50.7794 57.2532 46.4537C58.6049 41.0958 60.3253 37.3601 62.9059 32.5921C64.6263 29.397 67.2565 25.8823 69.788 23.2525L71.4838 21.5319C72.639 20.4013 73.6467 19.566 74.8755 18.5092C75.449 18.0176 76.047 17.5421 76.6697 17.0833C77.407 16.5672 77.9477 16.1245 78.6359 15.6575C79.8894 14.8219 81.1919 13.9377 82.5928 13.2003C84.1412 12.3401 85.3455 11.7504 86.9922 10.9884C88.4668 10.3003 90.0071 9.69389 91.6129 9.16957C102.058 5.72871 112.356 5.60551 122.998 8.38278C125.579 9.04637 128.16 10.0544 130.47 11.0867C131.928 11.7913 133.37 12.5445 134.795 13.3474C136.991 14.5271 139.031 15.879 140.915 17.4028C143.201 19.2708 145.978 21.5809 147.871 23.842C149.919 26.2998 151.82 28.8561 153.573 31.5105C154.015 32.1987 154.425 32.9192 154.802 33.6729C157.407 38.8342 159.078 42.5945 160.209 48.3948C161.094 52.8188 161.29 56.4078 161.29 60.8809L159.127 58.816L155.416 62.6255L164.018 71.3508L173.014 62.4537L169.278 58.6442L166.918 60.9049C166.869 49.6729 164.854 42.2015 161.069 34.0172C160.626 33.0832 160.184 32.4442 159.766 31.584C157.923 27.8482 155.121 24.014 152.344 20.8681C152.024 20.4994 151.754 20.3029 151.434 19.9343C149.861 17.9435 147.822 16.2965 145.929 14.6007L144.897 13.7651C139.982 9.73441 134.525 6.83447 128.602 4.47502C123.121 2.31219 116.608 0.935547 110.316 0.935547C98.6171 0.935547 93.6771 2.26329 83.6249 6.4169C79.1026 8.28479 74.5065 11.7991 70.697 14.8467L66.9123 18.3367C66.2487 19.0003 65.88 19.566 65.2164 20.205C62.1688 23.2035 59.1213 27.7745 57.1305 31.584C54.7465 36.2046 52.7803 40.9234 51.6743 46.0847C50.8633 49.9188 50.1993 54.2936 50.1993 59.0125Z" fill="white"/>
</svg>
