<svg width="68" height="68" viewBox="0 0 68 68" fill="none" xmlns="http://www.w3.org/2000/svg">
<path fill-rule="evenodd" clip-rule="evenodd" d="M5.49285 62.1571C5.62393 60.9283 5.77989 59.6341 5.96013 58.2741L6.64867 52.5723L9.96613 49.3036L18.3967 57.6351C17.9051 58.3233 16.8232 59.2573 16.2088 59.8717C14.857 61.2481 15.4714 60.9531 13.2348 61.2481C12.0797 61.371 5.95982 61.9359 5.49285 62.1571ZM21.9601 54.1204L13.5304 45.7641L36.2396 22.9319L44.6941 31.3129L21.9601 54.1204ZM39.8525 19.4419L45.8252 13.371L54.255 21.7273L48.2831 27.7982L39.8525 19.4419ZM49.4134 9.85629C49.9295 9.11896 51.6003 7.59492 52.3131 6.85759C54.5251 4.67019 57.966 4.62166 60.4729 6.73534C61.9967 8.01337 62.3165 9.68402 62.3165 11.6256C62.3165 14.108 59.2447 17.2295 57.8192 18.2126L49.4134 9.85629ZM0.405273 65.0081C0.405273 66.409 1.78204 67.2207 2.3719 67.2207C3.40416 67.2207 4.11689 67.1709 5.12457 67.0234L7.82775 66.7534L13.3579 66.1391C18.3225 65.451 16.7745 66.213 21.1493 61.8136C23.0664 59.9211 56.688 26.0775 57.5237 25.5368C57.9169 27.2081 58.261 26.4216 58.261 29.5675C58.261 32.0007 56.7862 33.672 55.3853 35.0729L43.9081 46.6244C42.2368 48.8855 44.6453 50.6304 45.7022 50.6304C47.0539 50.6304 47.9386 49.5489 48.6514 48.8115L59.6373 37.8008C60.0551 37.2847 60.4237 36.9652 60.7924 36.4245C61.5297 35.2939 61.9727 34.5569 62.4642 33.1805C64.0372 28.8795 63.029 25.5615 61.1119 21.9486C61.5543 21.285 62.6358 20.3511 63.2503 19.7367C65.6589 17.3035 67.5518 14.7472 67.5518 11.0114C67.5518 10.0283 67.183 8.13593 66.888 7.32487C66.462 6.22707 65.9294 5.26007 65.2904 4.42444C62.2674 0.492027 57.2288 -0.908508 52.5591 0.983971C50.2734 1.91792 49.0691 3.24467 47.4715 4.84221L29.6039 22.7346L11.7362 40.5782C9.10645 43.208 5.17387 46.9684 2.81443 49.4753C1.78217 50.6059 1.92913 50.975 1.68336 52.8183L0.405273 65.0081Z" fill="white"/>
</svg>
