<svg width="39" height="51" viewBox="0 0 39 51" fill="none" xmlns="http://www.w3.org/2000/svg">
<path fill-rule="evenodd" clip-rule="evenodd" d="M19.1918 48.7056C17.8646 48.7056 16.6851 47.5998 16.6851 46.2972V28.8226H21.3549C21.6007 28.8062 21.7152 28.9127 21.6988 29.1421V45.4857C21.6988 47.2798 20.8631 48.6809 19.1918 48.6809M16.6851 26.733H21.6988V27.4215H16.6851V26.733ZM1.59456 8.69357C2.35647 8.69357 2.74942 8.47217 3.14266 8.02977C3.63421 7.41533 3.46227 7.09622 3.63432 6.28516C4.37164 6.28516 4.46987 6.1863 4.46987 6.9482C4.46987 7.93131 4.44552 8.61951 5.08453 9.2831C5.33031 9.52888 5.28108 9.45533 5.55144 9.62738L5.79708 9.75038L6.04309 9.9469C4.00316 9.9469 1.81576 10.3648 1.59456 8.69357ZM32.4392 9.92215L34.7005 7.63675C34.7251 8.52154 34.7741 9.06215 34.3071 9.52912C33.8647 9.94694 33.2994 9.9469 32.4392 9.9469M2.03671 7.24297C1.1765 7.19382 1.47155 6.94819 1.47155 3.55649C1.47155 2.37677 2.01206 1.61536 3.19179 1.61536H11.3024V10.8807C11.3024 12.2325 9.21356 12.4787 8.8449 11.1515C8.72201 10.6845 8.86931 9.18512 7.44381 8.69357C6.58359 8.39864 7.07523 8.88993 5.92009 8.12803C5.92009 7.07119 6.16579 4.80982 4.00296 4.80982C2.70035 4.80982 2.03671 5.91578 2.03671 7.24297ZM20.2242 7.21897L21.2072 8.25104C21.9445 7.75949 27.5237 1.86091 27.8432 1.68887C28.3839 1.39394 31.3577 1.59061 32.2179 1.59061C32.0458 1.83639 31.5792 2.40136 31.3088 2.49967C31.3334 3.06495 31.8492 3.40897 32.2179 3.65474L34.135 1.78712C34.9952 3.04058 34.7249 2.84381 34.7249 5.47361C34.7249 5.84227 33.4959 6.87454 33.2256 7.16947L30.768 9.62738C30.3257 10.0698 30.178 9.9469 29.367 9.9469H26.0491L31.2106 4.71156L30.3011 3.729L28.6544 5.2276L28.6053 5.30185L26.1965 7.71025C23.1489 10.5613 25.066 9.92215 19.6343 9.92215L20.2242 9.2831L19.2657 8.25104C18.938 8.5132 18.6105 8.81601 18.2828 9.1601C17.0539 10.389 17.6191 9.9469 13.2443 9.9469C13.6621 9.30788 15.1611 7.981 15.8001 7.34198L21.0598 2.08189C21.6988 1.39372 21.6498 1.59061 23.1982 1.59061H25.8279L20.2242 7.21897ZM12.8018 8.25104V4.90807C12.7772 4.04786 12.6791 4.12189 13.146 3.6795L14.8172 2.03314C15.3087 1.51701 15.1613 1.59061 16.0952 1.59061H19.4131L12.8018 8.25104ZM12.8018 1.95889V1.59061H13.146L12.8018 1.95889ZM0.0952148 2.84394V8.69357C0.0952148 9.99618 1.3239 11.1264 2.50362 11.2985C3.9537 11.5443 5.79731 11.4215 7.41943 11.4215C7.91098 12.4537 8.40252 13.4864 10.1721 13.4864C11.401 13.4864 12.433 12.4292 12.6788 11.4215H32.5622C36.3963 11.4215 36.2243 8.84055 36.2243 6.50568H37.1337V17.9349C33.6928 18.746 26.8111 19.753 22.8787 20.4903L19.3887 21.1054C18.0615 21.3511 18.4054 20.859 18.4054 25.2584H15.5301C15.3007 25.242 15.1858 25.3569 15.1858 25.6026V45.7069C15.1858 46.9604 15.5543 48.042 16.1687 48.7056C17.3976 49.9837 17.9876 50.0332 19.6343 50.0332C21.3056 50.0332 23.0752 48.1158 23.0752 46.4937V25.2584H19.88V22.5057C22.2886 21.9404 26.5161 21.3507 29.1704 20.8346L38.51 19.1882V5.03108H36.2243V3.18821C36.2243 1.71356 35.0443 0.239025 33.5942 0.239025H2.72488C1.42227 0.239025 0.0952148 1.56591 0.0952148 2.84394Z" fill="#003D7B"/>
<path fill-rule="evenodd" clip-rule="evenodd" d="M18.3799 45.8306C18.3799 46.2976 18.6993 46.1749 19.535 46.1749C19.7643 46.1913 19.8789 46.0764 19.8789 45.8306V33.0506H18.4043L18.3799 45.8306ZM18.3799 31.8955H19.8545V30.1749H18.3799V31.8955Z" fill="#003D7B"/>
</svg>
