<svg width="80" height="72" viewBox="0 0 80 72" fill="none" xmlns="http://www.w3.org/2000/svg">
<path fill-rule="evenodd" clip-rule="evenodd" d="M0 7.35986V64.2959C0 67.9759 3.68811 71.6558 7.36011 71.6558H40.4082C44.0882 71.6558 47.7761 67.9759 47.7761 64.2959C47.7761 61.5199 48.32 58.9199 46.176 58.9199C43.544 58.9199 45.208 62.1998 44.272 65.1758C43.664 67.0958 41.856 68.48 39.416 68.48H8.36011C5.31211 68.48 3.18408 66.3442 3.18408 63.3042V8.35205C3.18408 5.31205 5.31211 3.18408 8.36011 3.18408H39.416C44.976 3.18408 44.616 8.27175 44.592 11.3438C44.576 13.0237 44.5121 14.3281 46.1841 14.3281C48.4641 14.3281 47.7842 11.1039 47.7842 7.35986C47.7842 3.68786 44.0802 0 40.4082 0H7.36816C3.68816 0 0 3.68786 0 7.35986Z" fill="#BB8C33"/>
<path fill-rule="evenodd" clip-rule="evenodd" d="M47.2642 56.1919C47.2642 49.9839 48.3841 49.7922 42.0881 49.8242C39.4801 49.8322 39.2081 49.6403 37.8481 48.2803C36.8641 47.2883 36.1121 45.92 36.1121 44.04V27.7202C36.1121 24.5042 38.4322 22.7441 41.6882 22.7441H69.9602C73.2802 22.7441 75.9282 24.6239 75.9282 27.9199V43.8403C75.9282 46.4963 73.688 49.048 71.624 49.688C68.488 50.648 56.8242 48.7519 54.4802 50.4639L47.2642 56.1919ZM32.9282 26.728V45.0483C32.9282 48.7043 36.7202 53.208 40.8962 53.208H44.0801V59.5762C44.0801 60.8562 45.1921 62.0803 47.6001 60.1123C48.2401 59.5923 48.7041 59.192 49.3601 58.688C57.9121 52.264 53.848 53.2002 62.592 53.2002C66.632 53.2002 71.296 53.696 74.104 52.168C76.68 50.768 79.1201 47.6559 79.1201 44.6479V26.9282C79.1201 23.2002 74.9121 19.56 71.1521 19.56H40.2961C36.6961 19.56 32.9282 23.12 32.9282 26.728ZM17.0081 11.6001C17.0081 12.5601 17.6321 13.1919 18.6001 13.1919H26.5601C28.6961 13.1919 28.6961 9.99998 26.5601 9.99998H18.6001C17.6401 9.99998 17 10.6401 17 11.6001" fill="#BB8C33"/>
<path fill-rule="evenodd" clip-rule="evenodd" d="M43.2959 33.102C43.2959 37.582 49.6641 37.582 49.6641 33.102C49.6641 28.966 43.2959 28.966 43.2959 33.102ZM63.9919 33.102C63.9919 37.582 70.3679 37.582 70.3679 33.102C70.3679 28.966 64 28.966 64 33.102M21 62.5664C21 67.0464 27.3679 67.0464 27.3679 62.5664C27.3679 58.4304 21 58.4304 21 62.5664ZM54.4399 33.102C54.4399 37.582 60.8159 37.582 60.8159 33.102C60.8159 28.966 54.4399 28.966 54.4399 33.102Z" fill="#BB8C33"/>
</svg>
