<svg width="39" height="50" viewBox="0 0 39 50" fill="none" xmlns="http://www.w3.org/2000/svg">
<path fill-rule="evenodd" clip-rule="evenodd" d="M2.3349 7.76675C2.3349 5.97259 6.85713 7.1521 9.58524 6.78344C10.6175 6.63597 11.5267 5.89881 11.9936 5.11233C12.3132 4.57162 12.3624 4.27663 12.4362 3.51473C12.5099 2.94944 12.682 2.3349 13.3947 2.3349H25.0197C26.2486 2.3349 25.6835 3.85887 26.4208 5.11233C27.7972 7.39804 30.3533 6.78344 33.0569 6.78344C34.5315 6.78344 36.0796 6.48861 36.0796 7.96326V38.2922H2.3349V7.76675ZM0.0243766 7.76675V39.5703C0.0243766 40.9958 2.06453 40.6271 3.39172 40.6271H7.86463C7.42223 41.2907 6.95546 41.8559 6.46391 42.5195L2.85093 47.3363C2.65431 47.6066 2.23627 48.0741 2.23627 48.4673C2.23627 49.1555 2.72787 49.6464 3.51435 49.6464C4.15337 49.6464 4.39942 49.1059 4.71893 48.7126C5.04663 48.2866 5.34944 47.8529 5.62798 47.4105H26.2734C27.1582 47.4105 28.2397 47.5574 28.2397 46.1565C28.2397 45.7386 27.9938 45.4444 27.748 45.2969C27.1336 44.9282 24.6511 45.0996 23.8647 45.0996H7.4716C7.74196 44.5589 9.83076 41.9049 10.396 41.1184C10.5435 40.9463 10.6666 40.6271 10.9616 40.6271H27.4285C27.8463 40.6271 29.0753 42.5441 29.2965 42.839L32.8356 47.5575L33.7203 48.7126C34.1873 49.3516 34.2612 49.6464 35.1214 49.6464C35.4409 49.6464 36.8907 49.1058 35.6618 47.4345C34.4329 45.8616 31.4838 42.0526 30.5498 40.6271H37.235C37.8986 40.6025 38.4145 40.2093 38.4145 39.5703V7.76675C38.4145 6.34125 37.3086 5.08797 36.2026 4.7193C34.1872 4.00655 29.6651 4.84223 28.7557 4.30153C28.1167 3.93286 28.3623 3.12156 28.0919 2.35965C27.6987 1.15535 26.4209 2.03477e-06 25.2166 2.03477e-06H13.1735C12.5345 2.03477e-06 11.748 0.466718 11.3794 0.810804C9.48688 2.58039 10.6664 3.68709 9.65874 4.30153C8.77395 4.84223 4.25183 4.00655 2.21189 4.7193C1.1059 5.08797 0.0243766 6.31667 0.0243766 7.76675Z" fill="#003D7B"/>
<path fill-rule="evenodd" clip-rule="evenodd" d="M6.33628 14.1752H17.5683V21.9419C17.5683 23.6132 19.9032 23.6132 19.9032 21.9419V14.1752H31.1351V25.4319H6.31191L6.33628 14.1752ZM4.00138 13.4131V26.1197C3.96861 27.2339 4.51755 27.7832 5.64811 27.7668H31.8233C33.003 27.7668 33.47 27.2748 33.47 26.1197V13.4131C33.47 12.602 33.126 11.865 32.3149 11.865H5.15646C4.3454 11.865 4.00138 12.602 4.00138 13.4131ZM31.0369 35.607C32.5115 35.607 33.4698 34.4766 33.4453 33.2969C33.3715 30.3476 28.9231 30.3476 28.8493 33.2969C28.8248 34.452 29.808 35.607 31.0369 35.607ZM6.23803 35.607C7.71268 35.607 8.64663 34.4766 8.62205 33.2969C8.54832 30.3476 4.09987 30.3476 4.02614 33.2969C4.02614 34.452 5.00915 35.607 6.23803 35.607ZM18.7481 8.57155C19.8049 8.57155 20.911 7.68702 21.0338 6.38441C21.1322 5.10637 20.1983 4.00001 18.5516 4.00001C17.3473 4.00001 16.413 5.17976 16.4376 6.33491C16.4867 7.61294 17.6175 8.5468 18.7481 8.5468" fill="#003D7B"/>
</svg>
