<svg width="44" height="44" viewBox="0 0 44 44" fill="none" xmlns="http://www.w3.org/2000/svg">
<path fill-rule="evenodd" clip-rule="evenodd" d="M23.656 39.2751C23.336 39.1951 23.4719 39.1869 23.2159 39.0109L23.616 36.611C24 33.915 23.744 34.3473 23.744 32.3713C24.4 32.3153 26.1601 30.4192 26.7841 29.9152C27.1441 29.6352 28.352 28.4272 28.64 28.3552C28.64 28.9392 28.808 29.2674 28.808 29.9314C28.808 31.8674 28.728 33.1473 27.552 34.7873C26.92 35.6513 25.152 37.4832 24.48 38.3552C24.336 38.5392 23.792 39.1791 23.656 39.2751ZM23.2159 30.8913C21.3839 30.8913 20.1759 29.9154 18.7679 28.9714L21.808 25.8913L22.7679 26.6193C24.3039 27.7553 24.904 27.7792 26.104 28.3552L24.024 30.2912C23.672 30.5712 23.416 30.8913 23.224 30.8913M14.84 30.2751C14.456 30.2751 14.056 29.9233 14.056 29.5793C14.056 29.0593 15.752 27.579 16.176 27.155C17.776 25.555 20.408 22.8109 21.936 21.3869C22.464 20.8909 23.224 21.1873 23.224 21.8913C23.224 22.3713 22.6161 22.803 22.3361 23.091L16.04 29.3791C15.76 29.6671 15.32 30.2751 14.84 30.2751ZM13.4399 21.3713C13.4399 20.8513 14.832 19.5631 15.296 19.0271C15.552 18.7471 15.664 18.4193 16.064 18.3073C16.144 19.2033 17.464 21.2351 18.072 22.0671C18.256 22.3071 18.3439 22.2911 18.4239 22.5871L15.48 25.5793C14.92 25.2033 13.4399 22.6673 13.4399 21.3713ZM11.96 20.6672L9.68799 20.5871C8.24799 20.5871 6.60796 20.907 5.40796 21.195L5.04004 20.7712L9.68799 16.739C10.064 16.475 10.336 16.299 10.808 16.115C12.52 15.427 14.136 15.347 15.976 15.779C15.912 16.011 13.7119 18.4433 13.4239 18.7234C13.1679 18.9794 13.12 19.0593 12.896 19.3313C12.528 19.7713 12.112 20.0272 11.96 20.6672ZM27.592 26.9553C25.744 26.9553 24.256 25.6352 22.968 24.7712C23.816 23.5072 24.808 23.7312 24.808 21.6272C24.808 21.0512 24.392 20.4593 24.088 20.1633C23.744 19.8433 23.152 19.531 22.528 19.531C20.904 19.531 20.5121 20.8194 19.5601 21.4514C19.4721 21.1154 17.376 18.6592 17.376 16.9152C17.376 16.5152 18.704 15.2352 19.056 14.8352L23.512 9.94699C26.152 7.30698 29.696 4.98724 33.264 3.70724C33.48 3.62724 33.76 3.563 33.968 3.46701C34.072 4.62701 35.728 6.82735 36.608 7.72335C37.4 8.49935 39.5679 10.251 40.8719 10.363C40.8239 10.915 40.128 12.5232 39.88 13.0432C39.4853 13.8965 39.0533 14.7152 38.584 15.4992C37.904 16.6352 37.12 17.763 36.264 18.779L34.52 20.779L33.6 21.6911L30.6639 24.3474C29.9919 24.8914 27.856 26.9553 27.592 26.9553ZM35.4561 3.01925C35.8801 3.01925 36.512 2.83509 36.936 2.75509C37.376 2.66709 37.9919 2.56335 38.4399 2.51535L42.0081 2.41134C42.0081 3.96334 42.008 4.73115 41.808 6.31515C41.744 6.77915 41.464 8.55521 41.312 8.87521C39.232 8.39521 36.5119 5.73893 35.6639 3.59494C35.5759 3.36293 35.5521 3.21925 35.4561 3.01925ZM17.288 14.467C16.632 14.411 15.968 13.9392 13.528 13.9392C10.992 13.9392 9.28803 14.9233 7.60803 16.4113L5.92004 17.8591C5.69604 18.0351 5.60804 18.179 5.36804 18.363C4.71204 18.875 3.48804 19.8032 3.48804 20.6672C3.48804 21.7712 4.50396 22.7634 5.40796 22.7634C6.20796 22.7634 7.96802 22.155 10.296 22.155C10.984 22.155 11.296 22.2351 11.96 22.2351C11.976 23.0751 12.808 24.5393 13.256 25.2273C13.384 25.4353 13.44 25.5632 13.576 25.7712C13.84 26.1472 14.0719 26.419 14.3199 26.779C13.7359 27.171 12.48 28.403 12.48 29.403C12.48 30.819 13.512 31.8513 14.576 31.8513C16.656 31.8513 16.392 30.9391 17.64 30.1071C18.568 30.7231 18.912 31.0193 19.968 31.6193C22.416 32.9873 22.176 31.4593 22.176 34.6433C22.176 36.6433 21.656 37.6432 21.656 39.1872C21.656 39.9232 22.68 40.8513 23.496 40.8513C24.816 40.8513 24.7761 40.3153 25.5601 39.5153C25.8001 39.2753 25.84 39.1953 26.048 38.9553L27.4399 37.3713C29.0399 35.7633 30.392 33.6511 30.392 31.2351C30.392 29.9551 30.392 28.2191 29.864 27.1311C30.32 26.8271 30.664 26.411 31.088 26.091L32.944 24.4431C33.68 23.8031 35.352 22.283 35.88 21.611L37.528 19.7712C38.632 18.3952 39.968 16.4672 40.76 14.8752C41.264 13.8752 41.776 12.7553 42.152 11.6433C43.432 7.85128 43.576 6.07502 43.576 1.88302C43.576 1.35502 43.392 0.987209 42.936 0.87521C40.552 0.29121 35.208 1.40299 33.256 2.05099C30.856 2.85099 28.88 3.88337 26.912 5.13937C25.36 6.12337 24.3039 7.12292 22.9919 8.28292C22.7439 8.50692 22.624 8.56324 22.376 8.81124L21.7679 9.41916L17.288 14.467ZM0.42395 43.2033C0.42395 44.2913 1.78397 43.9234 2.61597 43.8274C4.23197 43.6674 6.76805 43.5871 8.24805 43.1711C9.73605 42.7471 11.288 42.043 12.568 41.195L16.384 37.947C16.728 37.579 17.368 36.8752 17.368 36.3952C17.368 35.9472 16.776 35.1311 15.856 36.1071C12.656 39.5311 9.95198 41.8431 4.70398 42.0671C4.28798 42.0831 2.30396 42.2273 2.07996 42.3313C2.07996 41.5393 2.20004 40.6993 2.26404 39.8913C2.50404 36.6993 3.08003 34.5469 4.95203 32.0109C5.31203 31.5229 5.69599 30.9792 6.11999 30.5632C6.89599 29.8032 6.88799 29.603 8.11999 28.635C9.31999 27.675 8.47202 26.9553 7.84802 26.9553C7.08002 26.9553 4.16 30.2991 3.448 31.3791C2.184 33.2751 1.11995 35.403 0.871948 37.715L0.42395 43.2033Z" fill="white"/>
</svg>
