<svg width="50" height="48" viewBox="0 0 50 48" fill="none" xmlns="http://www.w3.org/2000/svg">
<path fill-rule="evenodd" clip-rule="evenodd" d="M3.40291 32.2926C3.40291 31.8256 3.79624 31.457 4.26322 31.457H45.283C45.7499 31.457 46.1433 31.8256 46.1433 32.2926V36.0286H3.40291V32.2926ZM38.4995 26.8855V29.9329H27.8083V26.7872C27.8083 26.3448 27.3661 25.8043 27.2432 25.3374H39.1633C39.0159 25.6323 38.4995 26.5412 38.4995 26.8607M21.7131 26.8607V29.9089H11.0219V26.7625C11.0219 26.3201 10.5796 25.7796 10.4567 25.3126H22.3769C22.2294 25.6075 21.7131 26.5412 21.7131 26.8607ZM8.76088 25.2879C8.76088 25.9023 9.49818 26.5173 9.49818 27.3775V29.8842H6.45073V16.2438C6.45073 15.3098 7.13876 14.6214 8.07271 14.6214H41.4491C42.5059 14.6214 43.0958 15.3587 43.0958 16.4155V29.8842H40.0236V27.3032C40.0236 26.738 40.7853 25.9514 40.7853 25.3861V23.7645H25.5473V25.2879C25.5473 25.9023 26.2846 26.5173 26.2846 27.3775V29.8842H23.2372V27.3032C23.2372 26.738 23.9989 25.9514 23.9989 25.3861V23.7645H8.76088V25.2879ZM4.92664 15.9483V29.8842H3.99283C2.93599 29.8842 1.87919 30.9162 1.87919 31.973V37.5031H47.667V31.973C47.667 30.9162 46.6102 29.8842 45.5534 29.8842H44.5948V15.9483C44.5948 14.449 43.2431 13.0733 41.7439 13.0733H7.77757C6.30291 13.0733 4.92664 14.449 4.92664 15.9483ZM9.22779 44.4096H40.3184C40.6133 44.4096 41.7687 45.6873 41.9408 45.9577H7.60581C7.77785 45.7119 8.93285 44.4096 9.22779 44.4096ZM1.85444 45.9577H0.355469V47.457H49.1911V45.9577H47.667V39.076H46.1433V45.9577H44.3248C43.8332 45.9577 41.4983 42.8855 40.9822 42.8855H8.53962C8.04807 42.8855 5.73791 45.9577 5.22178 45.9577H3.40291V39.076H1.87919L1.85444 45.9577ZM20.9514 6.26515C20.9514 2.18527 26.6286 1.03041 28.2261 4.71705C28.7013 5.74931 28.7013 6.78099 28.2261 7.81325C27.882 8.64888 27.1448 9.38628 26.3338 9.73037C25.3015 10.2055 24.2611 10.2055 23.2124 9.73037C22.4014 9.38628 21.6641 8.64888 21.3201 7.81325C21.148 7.46916 20.9514 6.73212 20.9514 6.26515ZM19.4277 5.97038V6.55992C19.4277 9.16514 21.8853 11.5987 24.4905 11.5987H25.0557C27.6609 11.5987 30.1189 9.14056 30.1189 6.55992V5.97038C30.1189 3.38973 27.6609 0.931557 25.0557 0.931557H24.4905C21.8853 0.931557 19.4277 3.38973 19.4277 5.97038Z" fill="#003D7B"/>
</svg>
