<svg width="39" height="39" viewBox="0 0 39 39" fill="none" xmlns="http://www.w3.org/2000/svg">
<path fill-rule="evenodd" clip-rule="evenodd" d="M0.525391 0.653637V7.04329C0.525391 7.78062 1.82785 8.12522 1.82785 6.79803V2.25124L36.728 37.1022H35.106C35.106 36.6107 35.2043 35.8481 34.4669 35.8481C33.705 35.8481 33.8279 36.5861 33.8279 37.1022H32.5254C32.5254 36.6107 32.6483 35.8481 31.8864 35.8481C31.1491 35.8481 31.2717 36.5861 31.2717 37.1022H29.9936C29.9936 36.6107 30.0919 35.8481 29.3546 35.8481C28.5927 35.8481 28.6912 36.5861 28.6912 37.1022H27.4131C27.4131 36.6107 27.536 35.8481 26.7741 35.8481C26.0367 35.8481 26.135 36.5861 26.135 37.1022H24.8569C24.8569 36.6107 24.9798 35.8481 24.2179 35.8481C23.4806 35.8481 23.5789 36.5861 23.5789 37.1022H22.3012C22.3012 36.6107 22.424 35.8481 21.6621 35.8481C20.9002 35.8481 21.0231 36.5861 21.0231 37.1022H19.745C19.745 36.6107 19.8679 35.8481 19.106 35.8481C18.344 35.8481 18.4669 36.5861 18.4669 37.1022H17.1888C17.1888 36.6107 17.3117 35.8481 16.5498 35.8481C15.7879 35.8481 15.9107 36.5861 15.9107 37.1022H14.6083C14.6083 36.6107 14.7312 35.8481 13.9692 35.8481C13.2319 35.8481 13.3302 36.5861 13.3302 37.1022H12.0521C12.0521 36.6107 12.1996 35.8481 11.4131 35.8481C10.6758 35.8481 10.7988 36.5861 10.7988 37.1022H9.52071C9.52071 36.6107 9.61883 35.8481 8.85692 35.8481C8.1196 35.8481 8.21788 36.5861 8.21788 37.1022H6.94018C6.94018 36.6107 7.06304 35.8481 6.30113 35.8481C5.56381 35.8481 5.66209 36.5861 5.66209 37.1022H4.38401C4.38401 36.6107 4.50688 35.8481 3.74497 35.8481C3.00764 35.8481 3.10593 36.5861 3.10593 37.1022H1.82785V10.2385C1.82785 9.40286 0.549767 9.40286 0.549767 10.2385V37.7653C0.566152 38.1585 0.779182 38.3715 1.18881 38.4043H38.3008C38.7104 38.4043 38.9235 38.1837 38.9398 37.7413C38.9398 37.2743 37.1212 35.6764 36.728 35.2586L2.51602 1.07141C2.24566 0.776482 1.65578 0.014595 1.18881 0.014595C0.779182 0.0309792 0.541776 0.244011 0.525391 0.653637ZM18.393 8.88691L23.751 14.2205C23.9968 14.4663 24.2672 14.8835 24.7096 14.8835C25.2503 14.8835 25.3486 14.4906 25.3486 14.0727C25.3486 13.8024 21.5882 10.2141 21.3178 9.94373L19.2781 7.9036C18.9586 7.55951 18.6144 7.0193 18.0491 7.33881C17.6067 7.58459 17.361 8.05102 16.9432 8.32137L15.616 1.51394L22.3994 2.86553C22.1291 3.28334 21.3426 3.75031 21.3426 4.24186C21.3426 4.73342 23.4809 6.69977 23.6775 6.69977C24.0707 6.69977 24.4639 6.62544 24.4639 6.08473C24.4639 5.51945 23.2348 4.70884 22.9398 4.24186C23.3085 3.99609 24.4639 2.9149 24.4639 2.4725C24.4639 1.98095 24.1199 1.83276 23.6775 1.73446C23.2843 1.6853 22.8582 1.60389 22.3994 1.48919C21.6129 1.34172 15.1981 0.014595 14.7065 0.014595C13.9692 0.014595 14.1166 0.850281 14.2149 1.29268C14.4607 2.52155 15.837 9.77163 16.009 10.042C16.648 11.0988 17.6803 9.35389 18.393 8.88691ZM27.6587 10.6563C27.6587 11.0495 30.7312 13.901 31.0261 14.2205L32.7954 15.9899C33.287 16.4814 34.2456 17.5875 34.7126 17.5875C35.4007 17.5875 35.5482 16.7274 36.138 16.5554C36.138 17.2682 37.4161 22.6747 37.4161 23.3628L30.6327 21.9865C30.8785 21.6424 31.7386 21.0038 31.7386 20.5614C31.7386 20.0944 29.5758 18.1035 29.3546 18.1035C28.8631 18.1035 28.6173 18.3325 28.6173 18.7913C28.6173 19.3566 29.748 20.119 30.0675 20.5614C29.576 21.2987 28.6173 21.5444 28.6173 22.552C28.6173 23.1173 30.3133 23.2895 31.0261 23.4123L33.7788 23.9779L37.9078 24.7887C38.1372 24.887 38.3502 24.887 38.5468 24.7887C39.1858 24.4937 38.8908 23.8056 38.7433 22.9946L37.2196 15.4003C36.7772 13.1638 35.2042 15.5966 34.6143 15.9899C34.3931 15.6704 28.8387 10.0915 28.5929 9.99323C28.1505 9.79661 27.6587 10.1893 27.6587 10.6563Z" fill="#003D7B"/>
<path fill-rule="evenodd" clip-rule="evenodd" d="M9.51865 21.4448L17.5063 29.4081L9.4939 29.4329L9.51865 21.4448ZM8.21582 19.848V30.0719C8.23221 30.4815 8.44523 30.6946 8.85486 30.7109H19.1039C19.5135 30.6946 19.7265 30.4815 19.7429 30.0719C19.7429 29.6787 19.4233 29.4823 19.2021 29.2611L9.69079 19.725C9.44501 19.5038 9.2481 19.209 8.85486 19.209C8.44523 19.2253 8.23221 19.4384 8.21582 19.848ZM24.9531 7.92748C24.9531 8.24699 25.494 8.86174 26.0347 8.39476C27.0915 7.46081 24.9531 6.6247 24.9531 7.90273M26.772 16.7998C26.772 17.9058 28.0501 17.9058 28.0501 16.7998C28.0501 16.1608 26.772 16.1608 26.772 16.7998Z" fill="#003D7B"/>
</svg>
