<svg width="53" height="53" viewBox="0 0 53 53" fill="none" xmlns="http://www.w3.org/2000/svg">
<path fill-rule="evenodd" clip-rule="evenodd" d="M7.41602 22.2458C7.41602 19.5098 8.25588 16.8456 9.43188 14.8136C12.7679 9.01363 19.248 6.07766 25.896 7.54166C28.096 8.02166 30.488 9.2214 32.208 10.6774C36.432 14.2454 38.5761 20.1333 37.2161 25.5973C36.4081 28.8293 34.76 31.6536 32.208 33.8136C31.376 34.5096 29.712 35.5977 28.72 35.9977C27.696 36.4057 26.9999 36.6538 25.8799 36.9338C19.9199 38.4218 13.736 35.8297 10.144 30.8537C9.70404 30.2297 9.05594 29.1257 8.78394 28.4377C7.98394 26.4697 7.40796 24.4938 7.40796 22.2458M0.927979 21.3014C0.927979 26.7974 1.72809 29.5575 4.28809 33.8615C6.37609 37.3575 9.65605 39.9576 13.248 41.7736C19.248 44.7896 27.44 44.5175 33.208 41.0295C33.632 40.7735 33.9839 40.5497 34.3999 40.3337C35.4479 41.0377 44.1439 50.3018 45.7119 51.5578C47.3919 52.9178 49.952 52.7895 51.512 51.2375C53.032 49.7015 53.1919 47.2214 51.8879 45.5094C50.9199 44.2294 41.2799 35.1256 40.6079 34.1256C43.1919 29.2296 44.1121 27.8054 44.1121 21.3014C44.1121 18.4134 43.0639 14.9897 42.0879 13.0617C41.8159 12.5177 41.5521 11.9094 41.2241 11.3654C37.5281 5.27739 30.7361 0.645664 23.4641 0.645664C19.5361 0.645664 16.64 1.0054 13.344 2.6774C12.8 2.9494 12.1919 3.20566 11.6399 3.54166C11.0799 3.88566 10.6 4.21358 10.104 4.56559C9.064 5.29359 8.14399 6.05349 7.23999 6.96549C3.58399 10.6135 0.919922 16.0614 0.919922 21.3014" fill="white"/>
</svg>
