<svg width="73" height="70" viewBox="0 0 73 70" fill="none" xmlns="http://www.w3.org/2000/svg">
<path fill-rule="evenodd" clip-rule="evenodd" d="M48.7385 38.0946C50.6714 38.0946 52.0292 38.5045 53.419 39.0583C54.4893 39.4896 55.911 40.4588 56.7524 41.2309C57.6203 42.0403 58.5255 43.2652 59.0953 44.3993C64.0953 54.426 53.5841 64.8359 43.8823 60.1713C40.5916 58.5899 38.3072 55.7517 37.4978 52.1574C36.2944 46.79 39.0421 41.4331 43.9782 39.1275C45.1816 38.5631 47.0292 38.0946 48.7385 38.0946ZM10.4691 15.64V59.8359C10.4691 60.4589 10.682 60.8476 10.895 61.2523H7.08242C6.84281 61.6037 6.51269 61.8114 6.60321 62.3173C6.68841 62.8178 7.10382 63.084 7.64695 63.084H64.9739C65.4958 63.084 65.8631 62.8498 65.9962 62.4132C66.1613 61.8594 65.8258 61.6783 65.5383 61.2523H55.6555C56.0602 60.6985 58.2221 59.8464 60.0644 56.9018C63.4723 51.4545 62.663 44.6123 58.1635 40.1022C53.1049 35.0276 44.4308 35.0649 39.5905 39.9637C38.3871 41.1778 37.6417 42.0564 36.8217 43.6912C34.729 47.8978 35.0111 53.0998 37.6096 56.987C38.4935 58.3182 39.4041 59.3406 40.6661 60.2831L41.6458 60.9968C41.8162 61.1299 41.8269 61.1351 41.9547 61.2523H14.8461C14.0473 61.2523 13.6693 61.3426 13.0889 61.0232C12.6629 60.7889 12.3062 60.4376 12.3062 59.8359V15.5015C12.3062 14.4099 13.3286 13.9464 14.4201 13.9464H18.2326V12.2531H13.5733C11.9014 12.2531 10.4691 13.9041 10.4691 15.64Z" fill="#003D7B"/>
<path fill-rule="evenodd" clip-rule="evenodd" d="M21.7616 9.70778C26.1119 9.70778 23.7317 9.61197 26.1598 10.5385C29.7594 11.9229 32.2088 9.71298 32.6348 9.71298H35.4569V14.7931H21.7616V9.70778ZM19.9297 9.56933V14.9367C19.9297 15.4373 20.2918 16.0123 20.6007 16.2413C20.9521 16.4969 21.6017 16.63 22.1875 16.63H34.8978C36.016 16.63 37.1556 16.1508 37.1556 15.0752V9.43088C37.1556 7.3542 33.6252 7.87608 32.3525 7.87608C31.639 7.87608 29.408 10.1977 26.3515 8.65348C24.2376 7.58319 25.638 7.87608 21.6231 7.87608C20.7711 7.87608 19.9297 8.72269 19.9297 9.56933ZM26.8467 65.6291C26.8467 66.1456 27.2088 66.4757 27.5549 66.4757H34.4719V67.3224C32.1662 67.3224 30.2386 66.9069 30.2386 68.1742C30.2386 68.531 30.5422 69.0156 30.9415 69.0156H42.097C43.0076 69.0156 43.0076 67.3224 42.097 67.3224H38.1406V66.4702H45.0628C45.9681 66.4702 46.1918 64.6385 44.6369 64.6385H27.9756C27.326 64.6385 26.8467 64.9529 26.8467 65.6291ZM38.8542 13.9461C45.9096 13.9461 44.9244 12.7908 44.9244 23.4085V35.1232C45.5261 35.0753 45.9681 34.8569 46.6124 34.8463V15.3573C46.6124 13.8078 45.0629 12.2529 43.508 12.2529H38.8488L38.8542 13.9461ZM46.474 53.4884C46.1172 53.2434 45.7019 52.9292 45.3771 52.6044C45.1854 52.4127 45.0896 52.2903 44.8766 52.1146L43.1301 50.6183C42.7041 50.2562 42.5336 49.8142 41.8148 49.8142C41.7456 49.8142 39.8978 50.3626 42.081 52.0931C47.1821 56.1613 45.8137 57.2796 48.95 53.2807C49.7434 52.2796 50.4303 51.4598 51.213 50.4587L54.605 46.22C55.4464 45.1444 55.654 45.1978 55.654 44.3032C55.654 43.9038 55.1641 43.6002 54.802 43.6002C54.1151 43.6002 52.9916 45.336 52.5657 45.8791C51.8841 46.7311 51.2343 47.5247 50.5528 48.3819C49.8605 49.2446 49.2588 50.0219 48.5506 50.8952L46.474 53.4884Z" fill="#003D7B"/>
<path fill-rule="evenodd" clip-rule="evenodd" d="M24.4467 26.5125H41.2519C42.6736 26.5125 42.8012 24.6752 41.3901 24.6752H24.1644C23.2592 24.6752 22.8759 26.5125 24.4467 26.5125ZM24.3082 29.899H41.3901C42.8012 29.899 42.6736 28.0673 41.2519 28.0673H24.4467C23.009 28.0673 23.025 29.899 24.3082 29.899ZM24.4467 36.8212H40.6873C40.9855 36.8212 42.3806 36.374 42.3806 35.8309C42.3806 35.4954 41.8747 34.9843 41.534 34.9843H24.4467C23.009 34.9843 23.009 36.8212 24.4467 36.8212ZM23.3178 22.1354C23.3178 22.6732 23.7385 22.9875 24.3082 22.9875H41.6724C42.5883 22.9875 42.5883 21.2887 41.6724 21.2887H24.026C23.6266 21.2887 23.3178 21.7679 23.3178 22.1354ZM23.6001 40.0693C25.0644 40.41 34.6117 40.2077 36.8747 40.2077C37.0718 40.2077 39.4467 38.376 38.2859 38.376H25.011C23.5733 38.376 23.0197 38.8552 23.6001 40.0693ZM35.0377 43.7434C35.2134 42.9979 35.7299 42.5029 35.8897 41.9065L24.5798 41.8958C23.9088 41.9011 23.632 41.9757 23.435 42.4603C23.2752 42.8437 23.355 43.2162 23.7011 43.4931C24.2336 43.9298 27.5989 43.7382 28.4029 43.7382L35.0377 43.7434ZM35.8843 57.4389L34.9897 55.6284L25.2933 55.5965C24.2763 55.5912 23.0781 55.7029 23.3976 56.7785C23.536 57.2578 23.7704 57.4015 24.3029 57.4441L35.8843 57.4389ZM24.4467 54.0469H34.3348C34.3135 53.2748 34.0526 53.0512 34.0526 52.2152H24.1644C23.2592 52.2152 22.8759 54.0469 24.4467 54.0469ZM23.3178 49.6701C23.3178 50.0322 23.6266 50.5219 24.026 50.5219H33.7703V48.818H24.3082C23.7385 48.818 23.3178 49.1323 23.3178 49.6701ZM17.2474 25.9479C16.4487 25.735 16.3742 25.1013 15.5542 25.1013C15.0749 25.1013 14.8033 25.6709 14.7022 26.0916C14.7767 26.6294 16.9919 28.2057 17.3912 28.2057C18.0941 28.2057 19.6437 25.7562 20.1708 25.0639C20.3039 24.8882 20.634 24.4785 20.7192 24.3187C20.9695 23.8661 20.9163 22.9875 19.7875 22.9875C19.3242 22.9875 18.7385 23.9619 18.4563 24.3346C18.0356 24.8991 17.6042 25.4155 17.2474 25.9479ZM17.2474 39.7871C17.1782 39.7499 14.7448 37.817 14.7555 39.7871C14.7608 40.4474 15.501 40.7562 16.2571 41.342C17.7268 42.4761 17.8971 41.8851 19.3614 39.9256C19.6809 39.4996 20.8418 38.1046 20.8631 37.6626C20.879 37.2153 20.5063 36.7465 20.0536 36.7146C19.223 36.6613 17.7852 38.9831 17.2474 39.7871ZM17.2474 53.6263C16.7895 53.3175 16.1985 52.6361 15.5542 52.6361C15.0749 52.6361 14.8033 53.2057 14.7022 53.6263C15.0749 54.3346 15.2559 54.3558 15.8949 54.835C17.945 56.3686 17.4711 56.1557 20.1708 52.5987C20.3039 52.423 20.634 52.0182 20.7192 51.8531C21.1825 51.0012 20.0802 49.6859 19.0153 51.1609L17.2474 53.6263ZM46.6192 65.4847C46.6192 66.8957 47.8172 66.4753 50.8524 66.4753C52.2635 66.4753 52.1303 64.638 50.7139 64.638C49.3987 64.638 46.6139 64.2921 46.6139 65.4902M20.7779 65.4847C20.7779 66.9224 22.599 66.4753 25.2933 66.4753C26.1826 66.4753 26.3901 64.638 24.8672 64.638C23.5573 64.638 20.7779 64.2921 20.7779 65.4902M66.8109 62.2366C66.8109 63.3974 69.9153 63.3974 69.9153 62.2366C69.9153 61.0438 68.9089 61.2515 67.796 61.2515C67.1393 61.2515 66.8109 61.5799 66.8109 62.2366ZM2.70004 62.2366C2.70004 63.3974 5.80981 63.3974 5.80981 62.2366C5.80981 61.0438 4.79804 61.2515 3.69048 61.2515C3.0302 61.2515 2.70185 61.5799 2.7054 62.2366M52.2635 22.6999C51.3051 22.6999 51.3051 21.5708 52.2635 21.5708C52.9558 21.5708 52.9558 22.6999 52.2635 22.6999ZM50.8524 22.1354C50.8524 23.7754 53.5361 23.9458 53.5361 21.9969C53.5361 20.5805 50.8524 20.3409 50.8524 22.1354ZM3.55203 20.8682C2.97163 20.4422 3.45084 19.8565 2.56159 20.2985C2.81186 20.6712 2.8865 20.6977 3.12612 21.1503C2.79598 21.0704 2.7108 21.0173 2.27949 21.0066V21.5708C2.60963 21.4963 2.69481 21.4377 3.12612 21.4324C2.8865 21.8797 2.80653 21.9063 2.56159 22.279L3.12075 22.4389C3.22725 21.981 3.30705 22.0128 3.40822 21.5708C3.74368 22.0501 3.47742 22.2473 4.1164 22.423C4.43589 21.7201 4.04729 22.2311 3.8343 21.4324L4.67556 21.5923V21.0066C4.24958 21.0173 4.16443 21.0704 3.8343 21.1503C4.00469 20.5113 4.08449 20.9 4.19098 20.5006C4.3241 20.0054 4.29755 20.2665 3.8343 20.0215C3.7278 20.4582 3.6532 20.4262 3.55203 20.8682ZM59.6065 11.1237C59.2763 11.0438 59.1911 10.9907 58.7598 10.98V11.5442C59.0953 11.4697 59.1805 11.4164 59.6118 11.4058C59.3562 11.7785 59.2815 11.7998 59.0419 12.2524L59.6011 12.4123C59.6384 12.0129 59.6757 12.0077 59.7503 11.6882H60.0324C60.1069 12.0077 60.1389 12.0077 60.1708 12.3964L60.73 12.2365C60.5969 11.72 60.4637 11.8424 60.1708 11.4058C61.0654 11.4058 61.092 11.7787 61.1613 10.98C60.6022 10.98 60.5862 11.0278 60.1708 11.1237C60.8204 10.1545 60.9269 10.1973 60.1708 10.1334C60.1389 10.5168 60.1069 10.5168 60.0324 10.8416C59.5159 10.4635 59.7661 9.98935 59.2496 10.1864C58.9035 10.3248 59.1219 10.3942 59.2444 10.6072C59.3988 10.8735 59.4574 10.8947 59.6065 11.1237ZM0.160156 61.9545C0.160156 63.4508 1.85341 63.5466 1.85341 61.9545C1.85341 61.0493 0.160156 61.0493 0.160156 61.9545ZM70.762 61.9545C70.762 63.5466 72.4552 63.4508 72.4552 61.9545C72.4552 61.0493 70.762 61.0493 70.762 61.9545ZM68.7864 19.1694C68.7864 18.6795 69.0686 18.7433 69.3508 18.7433C69.5318 19.1214 69.4786 18.9034 69.4893 19.4518C69.1804 19.4518 68.7864 19.4995 68.7864 19.1694ZM68.2219 19.1694C68.2219 19.5049 68.4989 19.7287 68.7119 19.9523C68.8876 20.128 70.059 20.1385 70.059 19.0309C70.059 18.0192 68.2219 17.8755 68.2219 19.1694ZM13.9994 9.70731C13.9994 9.21743 14.2815 9.28643 14.5637 9.28643C14.7448 9.65917 14.6915 9.44115 14.7022 9.99494C14.3933 9.98429 13.9994 10.0321 13.9994 9.70731ZM13.4348 9.57406C13.4348 10.7136 15.2667 11.0544 15.2667 9.57406C15.2667 9.40899 14.7075 8.25883 13.8289 8.97768C13.6958 9.08418 13.4348 9.45691 13.4348 9.57406ZM67.9398 4.48357C67.9398 3.94576 67.8972 4.43023 68.0783 4.05749C69.5053 4.39295 67.9398 5.54853 67.9398 4.48357ZM67.3753 4.48357C67.3753 4.81903 67.6523 5.11208 67.8014 5.33572H68.7864C69.3668 4.46777 69.3668 4.50488 68.7864 3.63694H67.796C67.6522 3.85526 67.3701 4.15363 67.3701 4.48909M24.1644 1.66158C23.8343 1.58704 23.7491 1.52825 23.3178 1.5176V1.94368H24.026C23.829 2.68383 23.5733 2.12458 23.8822 2.79551L24.388 2.16728L24.4467 2.08733C24.681 3.08307 25.1867 2.82237 25.0057 2.36976C24.9365 2.18871 24.8566 2.13538 24.7288 1.94368H25.4371V1.5176C25.0537 1.54955 25.0536 1.58704 24.7288 1.66158C24.9045 1.0226 25.288 1.18759 25.0164 0.916031C24.6117 0.511337 24.9312 0.926544 24.3082 1.37915C24.1538 0.734848 24.2762 0.873528 23.7437 0.814949C23.797 1.46458 23.8556 1.1982 24.1698 1.66678M47.3221 1.66158C46.9653 1.0226 47.2795 0.905472 47.3221 0.814949L47.8812 0.974525C47.8386 1.55493 47.8119 1.51248 47.3221 1.66158ZM46.6459 0.852005L46.6139 1.66678C48.3817 3.20033 48.9407 0.394073 47.748 0.394073L46.6459 0.852005ZM2.41778 2.22578C2.36453 2.36423 2.23145 2.15665 2.56159 2.65186V2.93396C2.16223 3.53034 2.53501 3.70074 2.7054 3.07241C2.7267 3.09903 2.75858 3.10976 2.7639 3.15236L3.12612 3.49849C3.39236 2.85418 2.66811 3.02981 3.55203 2.93396L2.98767 2.65186C3.21131 2.3164 3.15795 2.50267 3.26977 2.08733C2.84378 2.19915 2.95568 2.08743 2.84385 2.5134C2.81723 2.48146 2.7906 2.39643 2.77463 2.42306C2.67878 2.67332 2.80649 2.05539 2.41778 2.22578Z" fill="#003D7B"/>
</svg>
