<svg width="62" height="62" viewBox="0 0 62 62" fill="none" xmlns="http://www.w3.org/2000/svg">
<path fill-rule="evenodd" clip-rule="evenodd" d="M0.634766 2.99282V58.4136C0.634766 59.8141 2.0352 61.209 3.43563 61.209H44.6231C46.0182 61.209 47.4186 59.8141 47.4186 58.4136V47.9928C47.4186 47.3751 47.014 46.9759 46.4016 46.9759C45.129 46.9759 45.3845 48.2804 45.3845 49.5158V56.6349C45.3845 57.9288 45.5336 59.1803 44.2397 59.1803H3.81368C3.19068 59.1803 2.67415 58.6637 2.67415 58.0353V3.37079C2.67415 2.74779 3.19068 2.23134 3.81368 2.23134H44.2397C45.1556 2.23134 45.3952 2.90758 45.3899 3.88202V22.5615C45.6029 23.7808 47.4132 23.4243 47.4132 22.567V2.99282C47.4132 1.59239 46.0182 0.197155 44.6231 0.197155H3.43563C2.0352 0.197155 0.634766 1.59239 0.634766 2.99282Z" fill="#003D7B"/>
<path fill-rule="evenodd" clip-rule="evenodd" d="M40.4249 45.4481C40.4249 44.841 40.7977 44.6864 40.9308 44.1806C41.4846 44.2232 42.2514 44.8248 42.7146 45.0698C42.475 45.5117 42.2247 46.188 41.7188 46.3743C41.1544 46.5767 40.4249 46.2148 40.4249 45.4481ZM43.8541 43.2862C43.3748 43.0359 42.4431 42.3863 41.9479 42.2744C41.9692 41.5183 42.9542 39.6118 43.2258 38.4563C43.7263 38.4989 45.6752 39.7343 46.3994 40.107C46.1332 40.6182 45.0735 41.779 44.5463 42.4499C44.2694 42.8067 44.0671 42.9826 43.8541 43.2862ZM47.6667 38.4563C47.017 38.1155 44.738 36.6673 44.2375 36.5502C44.2801 36.0284 44.8818 35.1976 45.1321 34.777L51.229 24.2232C51.5485 23.6268 51.9266 23.041 52.2407 22.4393C52.6933 22.5618 55.0362 24.0102 55.6752 24.3509C55.558 24.8568 54.0938 27.2159 53.7317 27.8655L47.6667 38.4563ZM56.8254 22.5673C55.6539 21.9497 54.5729 21.2892 53.3908 20.6609C53.5612 19.9261 55.1427 17.6898 55.2971 17.1041C55.9468 17.4449 58.2258 18.893 58.7263 19.0102C58.6943 19.4309 58.54 19.5747 58.343 19.8942L56.8254 22.5673ZM58.9819 16.7206C58.4707 16.6034 57.7359 16.1029 57.3312 15.8314C57.8105 13.76 59.6209 14.4042 59.6209 15.4479C59.6209 15.7673 59.1363 16.4863 58.9819 16.7206ZM55.5527 14.6919C53.9287 14.6919 54.2535 14.8357 53.1299 16.7154L51.4793 19.5214C51.197 19.3723 50.4143 18.8877 50.0842 18.8877C49.1949 18.8877 48.5772 20.1445 49.5357 20.8367C49.7753 21.0071 50.1001 21.1776 50.3344 21.3054C50.2013 21.8858 49.8925 22.2423 49.6209 22.7428C49.3174 23.3019 49.0725 23.648 48.7743 24.1858C48.2258 25.1763 47.7199 26.0817 47.1502 27.0189C46.6017 27.9347 46.1065 28.893 45.5314 29.8409C44.9563 30.81 44.3812 31.7737 43.8541 32.7428C43.5985 33.222 43.3323 33.6001 43.0554 34.1006C40.803 38.1475 41.2556 38.0306 39.6475 42.0083C38.8914 43.8719 37.475 44.7823 38.7689 47.2317C38.4282 47.7482 36.9318 49.6013 36.4792 49.9048C35.6858 46.4916 33.3695 46.5981 32.3205 48.0305L31.9052 48.6321C31.9052 47.86 31.8041 47.4768 31.7774 46.726C31.7668 46.2627 31.6975 45.3842 31.623 44.8517C31.3035 42.4875 28.5187 41.939 27.5442 44.2712C27.1502 45.2191 25.0415 51.6141 25.0415 52.0667C25.0415 52.6791 25.4462 53.0784 26.0586 53.0784C27.1874 53.0784 27.4963 51.1083 28.0447 49.4735L28.7476 47.3756L29.0937 46.3265L29.3599 45.5758C29.4771 45.3096 29.3972 45.464 29.4931 45.3255C29.4984 45.6823 29.5942 46.6035 29.6528 47.0721C29.8126 48.2968 29.5623 50.9217 31.9052 50.9217C33.3429 50.9217 33.6624 49.6971 34.0671 49.3936C34.7167 52.1785 36.7189 53.1849 38.3642 51.1509C40.8616 48.0571 39.7434 48.6748 41.6816 48.4885C43.7743 48.2914 44.0245 46.5768 45.4515 44.761C47.3419 42.3648 48.4494 41.481 49.9137 38.7972C50.2971 38.0997 50.6166 37.546 51.032 36.8645C51.426 36.2148 51.7082 35.6451 52.0969 35.0061L55.3983 29.2871C55.7817 28.6534 56.0853 28.0624 56.4633 27.4287C56.8627 26.7737 57.1768 26.1029 57.5815 25.4959C58.7316 25.8048 59.2322 26.4811 58.6464 27.5727C58.2045 28.414 57.7519 29.1914 57.262 30.0008C56.9159 30.5705 54.5357 34.612 54.5357 34.8995C54.5357 35.7408 55.8403 36.6193 56.6923 35.155L59.9404 29.5107C60.8456 28.0197 61.6816 26.6034 60.2812 24.8355C59.8392 24.2871 59.2269 24.0476 58.6039 23.7175C59.0405 22.8868 59.5304 22.0987 59.9936 21.2946C61.2716 19.0848 61.6071 18.9464 60.8882 17.8707C61.1704 16.6727 61.6497 17.3169 61.6497 15.1976C61.6497 12.8866 58.6039 11.4384 56.5432 13.1423C56.229 13.4032 55.6539 14.2499 55.5527 14.6919ZM9.79127 7.31697V11.3798C9.79127 11.9975 10.1906 12.4023 10.8029 12.4023H37.246C38.6091 12.4023 38.6091 10.3626 37.246 10.3626H11.8253V8.3339H37.246C38.6091 8.3339 38.6091 6.29972 37.246 6.29972H10.8029C10.1906 6.29972 9.79127 6.6991 9.79127 7.31145M4.70605 47.9932V48.8824C4.70605 53.1901 8.66237 57.1465 12.9648 57.1465H13.7263C20.9308 57.1465 23.7742 47.4819 20.9733 47.4819C19.6901 47.4819 19.9776 49.0155 19.7326 50.0592C18.7582 54.3031 13.5186 56.6515 9.61016 53.8932C5.80291 51.2095 5.84019 45.7461 9.61016 43.1103C13.7635 40.1977 17.1714 43.4191 17.9222 43.4191C18.8807 43.4191 20.0788 41.8857 16.9265 40.5971C13.5026 39.1967 9.84979 39.729 7.21401 42.3648C6.04787 43.5256 4.70605 45.7354 4.70605 47.9932ZM16.9105 22.5673C16.9105 23.185 17.3099 23.5843 17.9222 23.5843H40.2971C41.6603 23.5843 41.6603 21.5501 40.2971 21.5501H17.9222C17.3099 21.5501 16.9105 21.955 16.9105 22.5673ZM7.75717 28.6696C7.75717 29.2872 8.15654 29.6865 8.7689 29.6865H29.1097C30.4781 29.6865 30.4781 27.6523 29.1097 27.6523H8.7689C8.15654 27.6523 7.75717 28.0572 7.75717 28.6696ZM12.8424 15.4479C12.8424 16.0655 13.2418 16.4703 13.8541 16.4703H34.1949C35.558 16.4703 35.558 14.4309 34.1949 14.4309H13.8541C13.2418 14.4309 12.8424 14.8355 12.8424 15.4479ZM7.75717 33.7545C7.75717 34.3722 8.15654 34.7718 8.7689 34.7718H18.9392C20.3077 34.7718 20.3077 32.7376 18.9392 32.7376H8.7689C8.15654 32.7376 7.75717 33.1422 7.75717 33.7545Z" fill="#003D7B"/>
<path fill-rule="evenodd" clip-rule="evenodd" d="M13.0927 49.2645C12.4644 48.8386 10.9682 46.8472 10.2972 46.8472C9.73281 46.8472 9.15234 47.3637 9.15234 47.8589C9.15234 48.5884 10.3238 49.4775 10.7711 49.9301C11.7988 50.9525 12.9276 52.4434 14.7754 50.5691C15.4463 49.8875 18.359 47.3156 18.3963 46.5755C18.4335 45.9259 17.8105 45.3347 17.1076 45.5105C16.3462 45.7075 14.2642 48.4765 13.0927 49.2645ZM21.9905 33.7532C21.9905 34.3709 22.3952 34.7705 23.0076 34.7705H30.1269C31.49 34.7705 31.49 32.7363 30.1269 32.7363H23.0076C22.3952 32.7363 21.9905 33.1409 21.9905 33.7532ZM32.1609 28.6682C32.1609 29.2859 32.5656 29.6852 33.178 29.6852H40.2972C41.6604 29.6852 41.6604 27.651 40.2972 27.651H33.178C32.5656 27.651 32.1662 28.0559 32.1662 28.6682" fill="#003D7B"/>
</svg>
