<svg width="69" height="68" viewBox="0 0 69 68" fill="none" xmlns="http://www.w3.org/2000/svg">
<path fill-rule="evenodd" clip-rule="evenodd" d="M16.5759 51.7158L18.688 44.1958C19.36 41.7718 20.976 39.5801 23.832 39.5801H44.936C46.264 39.5801 47.648 40.3721 48.344 41.0601C50.096 42.7881 50.3121 45.3001 51.1201 48.0361L52.1999 51.8438L49.0239 54.4839C47.8239 55.3319 46.7039 55.9721 45.2959 56.6841C43.9599 57.3481 42.632 57.8118 41.072 58.2598C35.544 59.8598 28.608 59.2601 23.48 56.6841C21.736 55.8041 17.6719 53.3398 16.5759 51.7158ZM32.8159 0.131844H36.3601C38.6881 0.259842 40.9999 0.611732 43.1999 1.21973C50.3119 3.16373 56.8799 7.55597 61.2959 13.46C61.5839 13.836 61.848 14.1639 62.144 14.5879C65.664 19.6999 67.7839 25.9002 68.1599 32.1802V36.1802C67.9599 39.3642 67.304 42.5001 66.144 45.4761C65.92 46.0361 65.7921 46.4601 65.5601 46.9961C64.784 48.7881 64.4241 49.3557 63.4961 51.0117C62.2961 53.1797 61.5199 54.0118 60.0959 55.7798C59.7039 56.2598 59.5279 56.4518 59.0879 56.8838C58.6879 57.2838 58.5279 57.604 58.1279 57.916C57.7039 58.252 57.4481 58.5241 57.0481 58.9321C54.7041 61.3001 51.448 63.1477 48.4561 64.5957C44.4481 66.5317 40.0081 67.5478 35.5281 67.6758H33.5759C28.9679 67.5398 24.3759 66.4842 20.2319 64.5562C18.4239 63.7082 16.632 62.7638 15.032 61.5718C12.416 59.6038 10.736 58.228 8.62402 55.708C7.96802 54.932 7.39192 54.2357 6.81592 53.4277C5.51992 51.5877 3.99999 48.916 3.13599 46.812C1.05599 41.708 0.615967 38.2361 0.615967 32.5801C0.615967 28.6201 2.01594 23.0279 3.78394 19.5239C6.71993 13.7079 9.55206 10.2681 14.7681 6.37208C19.8241 2.58808 26.32 0.459846 32.824 0.131844M35.0559 33.772C31.9119 33.772 30.4961 33.3481 28.2241 31.1001C26.0081 28.9081 25.9519 26.2997 25.9519 23.2197C25.9519 21.7157 26.1601 20.756 26.5601 19.604C26.8721 18.708 27.5759 17.5958 28.1599 16.9878C32.9999 11.9638 40.4239 14.388 42.2319 19.604C43.2719 22.604 43.288 28.3722 40.696 30.9722C39.216 32.4602 37.3999 33.772 35.0559 33.772Z" fill="#BB8C33"/>
</svg>
